<svg width="1500" height="2484" viewBox="0 0 1500 2484" fill="none" xmlns="http://www.w3.org/2000/svg">
<mask id="mask0_1_2" style="mask-type:alpha" maskUnits="userSpaceOnUse" x="0" y="0" width="1500" height="2484">
<path d="M0 1733.29C0 1319.07 750 0 750 0C750 0 1500 1319.07 1500 1733.29C1500 2147.5 1164.22 2483.3 750 2483.3C335.775 2483.3 0 2147.49 0 1733.29Z" fill="#F1904C"/>
</mask>
<g mask="url(#mask0_1_2)">
<path d="M0.0226822 1733.28C0.0226822 1319.07 750.023 0 750.023 0C750.023 0 1416.83 970.802 1416.83 1385.02L149.878 2179.7C-264.347 2179.7 0.0226822 2147.49 0.0226822 1733.28Z" fill="#FF7616"/>
<path d="M-69.4023 2428.67L1884.37 1207.82L2649.24 2431.87L695.468 3652.72L-69.4023 2428.67Z" fill="black"/>
</g>
</svg>
