<svg width="30" height="30" viewBox="0 0 30 30" fill="none" xmlns="http://www.w3.org/2000/svg">
<g clip-path="url(#clip0_1_6318)">
<path d="M27.8807 8.01766L26.129 7.79864V7.13024C27.0053 6.51737 27.5806 5.50261 27.5806 4.35484V3.87097H28.5484V2.90323H27.5806V2.41935C27.5806 1.0854 26.4952 0 25.1613 0H23.2258C21.8919 0 20.8065 1.0854 20.8065 2.41935V2.90323H19.8387V3.87097H20.8065V4.35484C20.8065 5.50309 21.3818 6.51785 22.2581 7.13024V7.79864L20.5064 8.01766C19.8456 8.10011 19.257 8.4538 18.8681 8.97524L16.9355 8.76047V8.09799C17.8118 7.48512 18.3871 6.47036 18.3871 5.32258V4.83871H19.3548V3.87097H18.3871V3.3871C18.3871 2.05314 17.3017 0.967742 15.9677 0.967742H14.0323C12.6983 0.967742 11.6129 2.05314 11.6129 3.3871V3.87097H10.6452V4.83871H11.6129V5.32258C11.6129 6.47083 12.1882 7.48559 13.0645 8.09799V8.76047L11.1319 8.97524C10.743 8.4538 10.1544 8.10059 9.4936 8.01766L7.74194 7.79864V7.13024C8.61824 6.51737 9.19355 5.50261 9.19355 4.35484V3.87097H10.1613V2.90323H9.19355V2.41935C9.19355 1.0854 8.10815 0 6.77419 0H4.83871C3.50476 0 2.41935 1.0854 2.41935 2.41935V2.90323H1.45161V3.87097H2.41935V4.35484C2.41935 5.50309 2.99466 6.51785 3.87097 7.13024V7.79864L2.1193 8.01766C0.911038 8.16816 0 9.20087 0 10.4181V16.9355C0 17.7357 0.651383 18.3871 1.45161 18.3871C1.63023 18.3871 1.79892 18.3502 1.95675 18.2912L2.4392 30H9.1737L9.66135 18.2928C9.81776 18.3507 9.98456 18.3871 10.1613 18.3871C10.5344 18.3871 10.8722 18.2416 11.1295 18.0093V18.4079L11.6332 30H18.3663L18.871 18.3871V18.0098C19.1285 18.242 19.4656 18.3871 19.8387 18.3871C20.0173 18.3871 20.186 18.3502 20.3438 18.2912L20.8263 30H27.5608L28.0484 18.2928C28.2049 18.3507 28.3717 18.3871 28.5484 18.3871C29.3486 18.3871 30 17.7357 30 16.9355V10.4181C30 9.20087 29.089 8.16816 27.8807 8.01766ZM25.8198 8.73543L26.1281 8.77394L25.4821 10.2818L24.8778 9.67742L25.8198 8.73543ZM26.6129 2.41935V2.90323H25.2485L25.5606 1.03059C26.1664 1.20542 26.6129 1.75828 26.6129 2.41935ZM23.7969 0.967742H24.5898L24.267 2.90323H24.1191L23.7969 0.967742ZM21.7742 2.41935C21.7742 1.75828 22.2207 1.20542 22.8265 1.03059L23.1386 2.90323H21.7742V2.41935ZM21.7742 4.35484V3.87097H26.6129V4.35484C26.6129 5.68879 25.5275 6.77419 24.1935 6.77419C22.8596 6.77419 21.7742 5.68879 21.7742 4.35484ZM24.1935 7.74194C24.5298 7.74194 24.8546 7.69114 25.1613 7.59923V8.02545L24.1935 8.9932L23.2258 8.02545V7.59923C23.5325 7.69114 23.8573 7.74194 24.1935 7.74194ZM22.5673 8.73543L23.5093 9.67742L22.905 10.2818L22.259 8.77394L22.5673 8.73543ZM17.4194 3.3871V3.87097H16.0549L16.367 1.99833C16.9728 2.17317 17.4194 2.72603 17.4194 3.3871ZM14.6033 1.93548H15.3962L15.0735 3.87097H14.9256L14.6033 1.93548ZM12.5806 3.3871C12.5806 2.72603 13.0272 2.17317 13.633 1.99833L13.9451 3.87097H12.5806V3.3871ZM12.5806 5.32258V4.83871H17.4194V5.32258C17.4194 6.65653 16.334 7.74194 15 7.74194C13.666 7.74194 12.5806 6.65653 12.5806 5.32258ZM15 8.70968C15.3362 8.70968 15.6611 8.65888 15.9677 8.56697V8.9346L15 9.57961L14.0323 8.9346V8.56697C14.3389 8.65888 14.6638 8.70968 15 8.70968ZM13.4265 9.69396L15 10.743L16.5735 9.69396L19.0316 9.96684C19.7676 10.0491 20.3226 10.6688 20.3226 11.4097V14.5161C20.3226 14.7826 20.1052 15 19.8387 15H16.9355C16.669 15 16.4516 14.7826 16.4516 14.5161C16.4516 14.2496 16.669 14.0323 16.9355 14.0323H19.3548V11.129H18.3871V13.0645H17.4194V11.129H12.5806V13.0645H11.6129V11.129H10.6452V14.0323H13.0645C13.331 14.0323 13.5484 14.2496 13.5484 14.5161C13.5484 14.7826 13.331 15 13.0645 15H10.1613C9.89478 15 9.67742 14.7826 9.67742 14.5161V11.4097C9.67742 10.6688 10.2324 10.0491 10.9684 9.96684L13.4265 9.69396ZM12.0968 17.9032V15.9677H12.5806V16.9355H17.4194V15.9677H17.9032L17.9037 17.9032H12.0968ZM13.5484 13.1536V12.0968H16.4516V13.1536C15.8898 13.3539 15.4839 13.8862 15.4839 14.5161C15.4839 15.146 15.8898 15.6783 16.4516 15.8787V15.9677H13.5484V15.8787C14.1102 15.6783 14.5161 15.146 14.5161 14.5161C14.5161 13.8862 14.1102 13.3539 13.5484 13.1536ZM7.88558 8.7919L7.12552 10.3123L6.49067 9.67742L7.43266 8.73543L7.88558 8.7919ZM6.27 14.3361L5.80645 14.7996L5.3429 14.3361L5.73297 10.4351L5.80645 10.3616L5.87993 10.4351L6.27 14.3361ZM8.22581 2.41935V2.90323H6.86138L7.17348 1.03059C7.77927 1.20542 8.22581 1.75828 8.22581 2.41935ZM5.40976 0.967742H6.20267L5.87993 2.90323H5.73203L5.40976 0.967742ZM3.3871 2.41935C3.3871 1.75828 3.83364 1.20542 4.43942 1.03059L4.75153 2.90323H3.3871V2.41935ZM3.3871 4.35484V3.87097H8.22581V4.35484C8.22581 5.68879 7.1404 6.77419 5.80645 6.77419C4.4725 6.77419 3.3871 5.68879 3.3871 4.35484ZM5.80645 7.74194C6.14266 7.74194 6.46752 7.69114 6.77419 7.59923V8.02545L5.80645 8.9932L4.83871 8.02545V7.59923C5.14538 7.69114 5.47025 7.74194 5.80645 7.74194ZM4.18024 8.73543L5.12223 9.67742L4.48738 10.3123L3.72732 8.7919L4.18024 8.73543ZM1.45161 17.4194C1.18511 17.4194 0.967742 17.202 0.967742 16.9355V10.4181C0.967742 9.68758 1.51446 9.06833 2.23932 8.97784L2.70878 8.91924L4.22229 11.9458L4.65253 11.5156L4.33452 14.6962L5.80645 16.1681L7.27838 14.6962L6.96037 11.5156L7.39061 11.9458L8.90412 8.91924L9.37358 8.97784C9.62166 9.00879 9.85107 9.10589 10.0472 9.2486C9.2486 9.64836 8.70968 10.4691 8.70968 11.4097V16.9355H2.90323V11.6129H1.93548V16.9355C1.93548 17.202 1.71812 17.4194 1.45161 17.4194ZM2.90323 17.9032H5.32258V29.0323H3.36725L2.90323 17.9032ZM6.29032 29.0323V17.9032H8.7092L8.24565 29.0323H6.29032ZM10.1613 17.4194C9.89478 17.4194 9.67742 17.202 9.67742 16.9355V15.8787C9.82934 15.933 9.99094 15.9677 10.1613 15.9677H10.6452V16.9355C10.6452 17.202 10.4278 17.4194 10.1613 17.4194ZM12.118 18.871H14.5161V29.0323H12.5603L12.118 18.871ZM15.4839 29.0323V18.871H17.882L17.4401 29.0323H15.4839ZM19.8387 17.4194C19.5722 17.4194 19.3548 17.202 19.3548 16.9355V15.9677H19.8387C20.0091 15.9677 20.1707 15.933 20.3226 15.8787V16.9355C20.3226 17.202 20.1052 17.4194 19.8387 17.4194ZM21.2903 17.9032H23.7097V29.0323H21.7543L21.2903 17.9032ZM24.6774 29.0323V17.9032H27.0963L26.6327 29.0323H24.6774ZM29.0323 16.9355C29.0323 17.202 28.8149 17.4194 28.5484 17.4194C28.2819 17.4194 28.0645 17.202 28.0645 16.9355V11.6129H27.0968V16.9355H21.2903V11.4097C21.2903 10.4691 20.7514 9.64789 19.9528 9.2486C20.1485 9.10589 20.3783 9.00879 20.6264 8.97784L21.2598 8.89845L22.5789 11.9763L24.1935 10.3616L25.8082 11.9763L27.1273 8.89845L27.7607 8.97784C28.4855 9.06833 29.0323 9.68758 29.0323 10.4181V16.9355Z" fill="#FF7616"/>
<path d="M23.7097 11.129H24.6774V12.0968H23.7097V11.129Z" fill="#FF7616"/>
<path d="M23.7097 13.0646H24.6774V14.0323H23.7097V13.0646Z" fill="#FF7616"/>
</g>
<defs>
<clipPath id="clip0_1_6318">
<rect width="30" height="30" fill="white"/>
</clipPath>
</defs>
</svg>
