<svg width="331" height="359" viewBox="0 0 331 359" fill="none" xmlns="http://www.w3.org/2000/svg">
<g opacity="0.5" clip-path="url(#clip0_1949_94)">
<path d="M289.164 137.5C287.889 137.5 286.613 137.245 285.338 136.48C282.787 134.949 281.256 132.398 281.256 129.592V92.6021H283.297V129.592C283.297 131.888 284.317 133.674 286.358 134.694C288.144 135.714 290.44 135.714 292.481 134.694C297.327 131.888 300.134 126.531 300.134 120.918V60.4593H302.174V121.174C302.174 127.551 298.858 133.418 293.501 136.48C291.97 137.245 290.695 137.5 289.164 137.5Z" fill="#0052B4"/>
<path d="M298.857 85.2042C298.857 84.9491 298.857 84.4389 298.601 84.4389L283.04 75.5103C282.53 75.0001 281.765 75.0001 280.744 75.7654L275.387 78.8266C273.601 79.847 272.326 82.3981 272.326 84.4389V104.337C272.326 105.612 272.836 106.378 273.601 106.633L288.652 115.306C288.908 115.561 289.418 115.306 289.673 114.796L298.857 85.2042Z" fill="#50A8FF"/>
<path d="M288.653 116.072C288.398 116.072 288.143 116.072 287.888 115.816L272.837 107.143C271.561 106.888 270.796 105.612 270.796 104.082V84.1838C270.796 81.8879 272.327 79.0817 274.367 77.8062L279.725 74.745C281 73.9797 282.276 73.9797 283.041 74.745L298.602 83.6736C299.367 84.1838 299.622 84.9491 299.367 85.7144L289.929 115.051C289.673 115.561 289.418 115.816 288.908 116.072C289.163 116.072 288.908 116.072 288.653 116.072ZM282.02 76.0205C281.765 76.0205 281.255 76.2756 281.255 76.2756L275.898 79.3368C274.367 80.1021 273.347 82.3981 273.347 83.9287V103.827C273.347 104.082 273.347 104.847 273.857 105.102H274.112L288.908 113.776L298.092 84.9491L282.786 76.0205C282.276 76.2756 282.02 76.0205 282.02 76.0205Z" fill="#0052B4"/>
<path d="M291.46 115.306C289.674 116.327 288.399 115.561 288.399 113.521V93.6225C288.399 91.5817 289.929 89.0307 291.46 88.0103L296.817 84.9491C298.858 83.6736 300.388 85.2042 299.878 88.0103L294.521 110.969C294.011 112.755 292.99 114.541 291.46 115.306Z" fill="#0052B4"/>
<path d="M290.184 116.837C289.673 116.837 289.163 116.837 288.908 116.582C287.888 116.071 287.378 115.051 287.378 113.52V93.6225C287.378 91.3265 288.908 88.5204 290.949 87.2449L296.306 84.1837C297.582 83.4184 298.857 83.4184 299.878 84.1837C300.898 84.949 301.408 86.4796 300.898 88.2653L295.541 111.225C295.031 113.265 293.755 115.306 291.969 116.071C291.459 116.582 290.694 116.837 290.184 116.837ZM298.347 85.7143C298.092 85.7143 297.837 85.7143 297.327 85.9694L291.969 89.0306C290.439 89.7959 289.418 92.0919 289.418 93.6225V113.52C289.418 114.031 289.673 114.541 289.929 114.796C290.184 115.051 290.694 114.796 291.204 114.541C292.48 113.776 293.5 112.245 293.755 110.969L299.112 88.0102C299.367 86.9898 299.112 86.2245 298.857 85.9694C298.602 85.7143 298.347 85.7143 298.347 85.7143Z" fill="#0052B4"/>
<path d="M313.654 33.1633L288.909 19.1327C288.144 18.6225 286.869 18.8776 285.848 19.6429L268.756 29.5919C266.715 30.6123 265.185 33.4184 265.185 35.7144V75.5103C265.185 76.5307 265.695 77.5511 266.205 77.8062L291.46 92.0919L313.654 33.1633Z" fill="#50A8FF"/>
<path d="M292.735 91.0715C292.225 92.0919 290.95 92.6021 289.929 92.0919L265.694 78.3164C264.674 77.8061 264.164 76.7857 264.164 75.2551V35.4592C264.164 32.9082 265.95 29.847 267.99 28.5715L285.082 18.6225C286.358 17.8572 287.888 17.6021 288.909 18.1123L314.419 32.6531L292.735 91.0715ZM287.888 19.898C287.378 19.898 286.868 20.1531 286.358 20.4082L269.266 30.3572C267.735 31.3776 266.205 33.6735 266.205 35.7143V75.5102C266.205 76.2755 266.46 76.7857 266.715 77.0408L291.205 90.8163L312.888 33.9286L288.654 20.1531C288.143 19.898 288.143 19.898 287.888 19.898Z" fill="#0052B4"/>
<path d="M305.491 71.1736L316.97 40.5613L292.225 26.5307C291.46 26.0205 290.185 26.2756 289.164 27.0409L272.072 36.9899C270.032 38.0103 268.501 40.8164 268.501 43.1123V49.4899L305.491 71.1736Z" fill="#C5E2FF"/>
<path d="M320.031 39.2858L315.694 33.6736C314.674 32.143 312.633 31.8879 310.592 33.1634L293.501 43.1123C291.205 44.3879 289.674 47.4491 289.674 50.0001V89.796C289.674 91.0715 290.184 92.347 291.205 92.8572C291.715 93.1124 291.97 93.1123 292.48 93.1123C292.99 93.1123 293.756 92.8572 294.521 92.6021L305.49 86.2246C308.041 84.694 310.082 81.8879 311.103 78.5715L320.796 45.6634C321.307 43.1123 321.052 40.8164 320.031 39.2858Z" fill="#0052B4"/>
<path d="M300.388 86.7347L294.265 90.3061C293.5 90.8163 292.735 90.8163 292.224 90.5612C291.714 90.3061 291.459 89.7959 291.459 89.2857L289.929 90.3061C290.184 91.0714 290.694 91.5816 291.459 92.0918C291.969 92.3469 292.48 92.602 292.99 92.602C293.755 92.602 294.52 92.3469 295.286 91.8367L300.133 89.0306L300.388 86.7347Z" fill="#50A8FF"/>
<path d="M317.735 273.214C317.735 272.959 317.735 272.704 317.735 272.194V258.163H301.153L224.878 214.286C216.969 209.694 205.235 209.184 198.602 213.265L120.286 258.418H103.704V271.429V271.939C103.704 275 105.745 278.061 110.082 280.612L196.561 330.612C204.469 335.204 216.204 335.714 222.837 331.633L313.143 279.592C316.204 277.806 317.48 275.765 317.735 273.214V272.704V273.214Z" fill="#50A8FF"/>
<path d="M211.357 335.204C205.999 335.204 200.387 333.929 196.05 331.378L109.571 281.378C105.234 278.827 102.683 275.255 102.683 271.939V271.429V257.398H120.03L198.091 212.245C204.979 208.163 217.479 208.673 225.387 213.265L301.663 257.143H319.01V272.194C319.01 272.449 319.01 272.959 319.01 273.214V273.469C318.755 276.276 317.224 278.316 313.908 280.102L223.601 332.143C220.285 334.184 215.948 335.204 211.357 335.204ZM104.724 259.439V271.429V271.939C104.724 274.745 106.765 277.551 110.591 279.847L197.071 329.847C204.469 334.184 215.948 334.694 222.326 330.867L312.632 278.827C315.183 277.296 316.459 275.765 316.714 273.725V272.959V272.704V259.694H300.897L224.367 215.561C216.969 211.225 205.489 210.714 199.112 214.541L120.54 259.949H104.724V259.439Z" fill="#0052B4"/>
<path d="M313.142 265.561L222.835 317.602C216.203 321.429 204.213 320.918 196.56 316.582L110.08 266.582C102.172 261.99 101.407 255.357 108.295 251.276L198.601 199.235C205.233 195.408 217.223 195.918 224.876 200.255L311.356 250.255C319.264 254.847 320.029 261.48 313.142 265.561Z" fill="#50A8FF"/>
<path d="M311.356 256.888L224.877 207.143C216.968 202.551 205.234 202.041 198.601 206.122L108.295 258.163C106.764 259.184 105.489 260.204 104.724 261.48V268.367C105.744 270.153 107.53 271.939 110.081 273.469L196.56 323.469C204.468 328.061 216.203 328.571 222.836 324.49L313.142 272.449C320.03 268.367 319.264 261.48 311.356 256.888Z" fill="#C5E2FF"/>
<path d="M211.611 321.173C206.254 321.173 200.642 319.898 196.305 317.347L109.825 267.347C105.489 264.796 102.938 261.224 102.938 257.908C102.938 254.847 104.723 252.296 108.04 250.51L198.346 198.469C205.489 194.388 217.733 194.898 225.642 199.49L312.121 249.49C316.458 252.041 319.009 255.612 319.009 258.929C319.009 261.99 317.223 264.541 313.907 266.327L223.601 318.367C220.285 320.408 215.948 321.173 211.611 321.173ZM209.825 197.449C205.744 197.449 201.917 198.214 198.856 200L108.55 252.296C105.999 253.827 104.468 255.867 104.468 257.908C104.468 260.714 106.509 263.52 110.336 265.561L196.815 315.561C204.213 319.898 215.693 320.408 222.07 316.582L312.376 264.541C314.927 263.01 316.458 260.969 316.458 258.929C316.458 256.122 314.417 253.316 310.591 251.276L224.366 201.276C220.285 198.724 214.927 197.449 209.825 197.449Z" fill="#0052B4"/>
<path d="M211.611 321.173L211.356 335.204L222.836 331.633L317.733 276.531L318.754 260.714L311.356 266.326L217.478 320.153L211.611 321.173Z" fill="#0052B4"/>
<path d="M282.785 261.225L274.112 206.888L273.347 203.317L266.204 159.184L265.694 155.612L258.806 112.5L258.551 110.204L256 108.674L211.357 82.9084L166.969 108.674L164.418 110.204L163.908 112.5L156.765 154.337L156.255 158.163L148.857 202.041L148.347 205.868L138.908 261.48L142.734 262.5L143.245 260.204L178.194 251.531L209.316 299.745L213.143 299.49L244.775 251.786L279.214 260.204L279.724 261.99L282.785 261.225ZM277.938 255.868L246.816 248.214L270.796 211.99L277.938 255.868ZM205.234 240.561L179.469 246.939L156.51 211.48L205.234 240.561ZM155.234 206.123L181.765 198.98L204.469 235.204L155.234 206.123ZM185.847 197.704L209.316 191.327L209.061 234.949L185.847 197.704ZM185.847 149.49L205.234 183.163L163.143 158.163L185.847 149.49ZM160.847 154.592L167.224 117.347L183.551 145.919L160.847 154.592ZM259.571 159.184L216.459 183.419L236.357 149.745L259.571 159.184ZM238.398 146.174L255.489 117.347L261.612 155.612L238.398 146.174ZM258.04 164.541L238.398 194.643L215.949 188.266L258.04 164.541ZM213.143 180.612L213.398 140.561L232.53 148.214L213.143 180.612ZM209.061 182.143L189.673 147.959L209.571 140.561L209.061 182.143ZM205.489 188.266L183.296 194.388L164.163 163.776L205.489 188.266ZM213.143 191.582L236.102 198.214L213.143 233.674V191.582ZM240.183 199.49L266.714 207.143L216.714 235.459L240.183 199.49ZM265.438 212.5L242.479 247.194L215.949 240.561L265.438 212.5ZM269.52 203.572L242.479 195.919L263.143 164.286L269.52 203.572ZM234.571 144.643L215.949 137.245L250.898 117.092L234.571 144.643ZM211.357 87.7553L252.428 111.48L211.357 135.204L170.285 111.48L211.357 87.7553ZM206.765 137.245L187.632 144.388L171.816 117.092L206.765 137.245ZM159.316 163.265L179.214 195.408L152.428 202.551L159.316 163.265ZM143.5 255.868L151.153 210.714L175.132 247.959L143.5 255.868ZM181.765 250.51L208.806 243.878L208.551 292.092L181.765 250.51ZM212.632 291.837L212.887 243.878L240.183 250.766L212.632 291.837Z" fill="#0052B4"/>
<path d="M256.51 90.0512L211.357 116.327L166.204 90.0512L211.357 64.0308L256.51 90.0512Z" fill="#50A8FF"/>
<path d="M166.204 90.0511V109.184L211.357 135.204V116.327L166.204 90.0511Z" fill="#50A8FF"/>
<path d="M256.51 96.1735L211.357 122.194L166.204 96.1735L211.357 69.898L256.51 96.1735Z" fill="#C5E2FF"/>
<path d="M256.51 89.0307L211.357 63.0103L166.203 89.0307L165.183 89.5409V90.8164V109.694L210.336 135.714L211.357 136.225L212.377 135.714L257.53 109.694V90.8164V89.5409L256.51 89.0307ZM211.357 65.3062L254.469 90.3062L211.357 115.306L168.244 90.3062L211.357 65.3062ZM210.336 133.418L167.224 108.418V91.8368L210.336 116.837V133.418Z" fill="#0052B4"/>
<path d="M211.866 134.439V132.143L255.999 106.633V108.929L211.866 134.439Z" fill="#50A8FF"/>
<path d="M202.938 46.1736C201.408 45.1532 199.622 45.1532 197.581 46.4287L196.306 47.194C191.969 49.745 188.142 56.6328 188.142 62.5001V84.694L195.03 88.7756L209.316 50.0001L202.938 46.1736Z" fill="#50A8FF"/>
<path d="M195.796 89.2858L195.03 89.796L187.377 85.2042V62.5001C187.377 56.1225 191.204 48.9797 196.051 46.1736L197.326 45.4083C199.622 44.1327 201.918 43.8777 203.704 45.1532L210.847 49.4899L195.796 89.2858ZM189.163 84.1838L194.265 87.245L208.041 50.5103L202.173 46.9389C200.898 46.1736 199.367 46.4287 197.836 47.194L196.816 47.9593C192.734 50.2552 189.163 56.8879 189.163 62.5001V84.1838Z" fill="#0052B4"/>
<path d="M197.836 68.1123C197.836 61.9898 201.408 54.847 206.254 52.0408L204.214 50.5102C202.683 49.4898 200.897 49.4898 198.857 50.7653L197.581 51.5306C193.244 54.0817 189.418 60.9694 189.418 66.8368V70.1531L197.836 75.2551V68.1123Z" fill="#C5E2FF"/>
<path d="M210.081 49.2348C208.296 48.2144 206 48.4695 203.704 49.745L202.428 50.5103C197.581 53.3164 193.755 60.4593 193.755 66.8368V89.2858L194.775 89.796L213.143 79.0817V56.3776C213.398 53.0613 212.122 50.2552 210.081 49.2348Z" fill="#0052B4"/>
<path d="M308.807 7.90828C309.062 7.65317 309.062 7.14297 308.807 7.14297L298.348 1.53072C297.837 1.02052 296.817 1.02052 295.797 1.53072L283.552 8.41848C282.021 9.43889 280.49 9.69399 279.215 9.18379L267.225 4.84705C266.205 4.33685 264.674 4.59195 263.143 5.61236L228.45 25.7654C226.409 26.7858 224.878 29.592 224.878 31.8879V40.0511C224.878 41.3266 223.858 42.8573 222.837 43.6226L111.868 107.143C110.082 108.163 108.552 110.714 108.552 113.01V125.51C108.552 126.786 109.062 127.806 110.082 127.806L120.286 133.418L124.623 126.276L189.164 83.4185L295.797 21.9389C297.582 20.9185 299.113 18.3675 299.113 16.0715V13.5205L308.807 7.90828Z" fill="#50A8FF"/>
<path d="M120.541 134.949L109.571 128.827C108.296 128.572 107.531 127.296 107.531 125.51V113.01C107.531 110.459 109.316 107.653 111.357 106.378L222.582 42.8572C223.347 42.347 224.112 41.0715 224.112 40.3062V32.1429C224.112 29.5919 225.898 26.5307 228.194 25.2552L262.888 5.10212C264.673 4.08171 266.204 3.82661 267.735 4.33682L279.724 8.67355C280.745 8.92865 281.765 8.67355 283.041 7.90824L295.286 0.765387C296.561 8.08835e-05 297.837 0.255183 299.112 0.765387L309.316 6.37763C309.827 6.63273 310.082 7.14294 310.082 7.65314C310.082 8.16335 309.827 8.67355 309.316 8.92865L300.133 14.0307V16.0715C300.133 18.6225 298.347 21.4287 296.306 22.7042L189.929 84.1838L125.388 127.041L120.541 134.949ZM266.204 5.86743C265.439 5.86743 264.673 6.12253 263.908 6.63273L229.214 26.7858C227.684 27.8062 226.153 30.1021 226.153 31.8878V40.0511C226.153 41.5817 225.133 43.6225 223.602 44.3878L112.378 107.908C110.847 108.929 109.571 110.969 109.571 112.755V125.255C109.571 125.51 109.571 126.531 110.337 126.531H110.592L120.031 131.633L124.112 125L188.653 82.1429L295.286 20.4082C296.816 19.3878 298.092 17.347 298.092 15.5613V12.5001L307.276 7.39804L297.837 2.296C297.327 1.7858 296.561 2.0409 296.306 2.296L284.061 9.43886C282.275 10.4593 280.49 10.7144 278.959 10.2042L266.969 5.86743C266.714 5.86743 266.459 5.86743 266.204 5.86743Z" fill="#0052B4"/>
<path d="M306 12.245L295.54 6.63274C294.775 6.12254 294.01 6.12254 292.989 6.63274L285.847 10.9695C284.316 11.9899 282.785 12.245 281.51 11.7348L269.52 7.39805C268.5 6.88785 266.969 7.14295 265.438 8.16336L231 28.0613C228.959 29.0817 227.428 31.8878 227.428 34.1838V34.9491L247.326 46.6838C247.326 46.6838 236.612 53.0613 236.102 53.0613C235.847 53.0613 230.234 49.745 224.622 46.1736L114.163 109.439C112.377 110.459 110.847 113.01 110.847 115.306V118.112L127.683 128.061L191.459 85.7144L298.091 24.2348C299.877 23.2144 301.408 20.6634 301.408 18.3674V15.8164L305.745 13.2654C306.255 12.7552 306.255 12.245 306 12.245Z" fill="#C5E2FF"/>
<path d="M310.082 6.37771C309.062 5.8675 307.786 5.8675 306.766 6.63281L294.521 13.7757C293.245 14.541 291.97 14.7961 291.205 14.541L278.96 10.2042C277.429 9.69403 275.899 9.94914 274.113 10.9695L239.419 31.1226C237.123 32.3981 235.337 35.4593 235.337 38.0104V46.1736C235.337 47.194 234.572 48.4695 233.807 48.7246L122.582 112.245C120.286 113.521 118.756 116.327 118.756 118.878V131.378C118.756 132.653 119.266 133.929 120.286 134.439C120.797 134.694 121.052 134.694 121.562 134.694C122.327 134.694 122.837 134.439 123.603 134.184L307.531 28.5716C309.827 27.2961 311.358 24.49 311.358 21.9389V9.43893C311.613 8.16342 311.103 7.14301 310.082 6.37771Z" fill="#0052B4"/>
<path d="M294.52 36.4797C294.52 35.7143 294.52 34.949 294.52 34.4388C294.265 32.398 293.245 30.8674 291.969 30.3572C290.439 29.847 288.908 30.1021 287.122 31.3776C284.061 33.6735 282.02 38.5205 282.531 42.347C282.531 42.6021 282.786 43.1123 282.786 43.3674L284.571 42.347V42.0919C284.061 39.0307 285.847 34.6939 288.398 32.9082C289.163 32.398 289.929 32.1429 290.439 32.1429C290.694 32.1429 290.949 32.1429 291.204 32.1429C291.969 32.398 292.48 33.4184 292.735 34.6939C292.735 35.7143 292.735 36.7348 292.48 37.7552L294.52 36.4797Z" fill="#50A8FF"/>
<path d="M221.307 56.3777C219.777 55.3572 217.991 55.3572 215.95 56.6328L214.675 57.3981C210.338 59.9491 206.511 66.8368 206.511 72.7042V94.8981L220.032 103.061L234.318 64.2858L221.307 56.3777Z" fill="#50A8FF"/>
<path d="M220.797 103.827L220.031 104.337L205.49 95.6633V72.9592C205.49 66.5817 209.317 59.4388 214.164 56.6327L215.439 55.8674C217.735 54.5919 220.031 54.3368 221.817 55.6123L235.848 63.7756L220.797 103.827ZM207.531 94.3878L219.521 101.531L233.297 64.796L220.797 57.398C219.521 56.6327 217.99 56.8878 216.46 57.6531L215.184 58.4184C211.103 60.7143 207.531 67.347 207.531 72.9592V94.3878Z" fill="#0052B4"/>
<path d="M219.011 81.1224C219.011 75 222.582 67.8571 227.429 65.051L225.388 63.5204C223.858 62.5 222.072 62.5 220.031 63.7755L218.756 64.5408C214.419 67.0918 210.592 73.9796 210.592 79.8469V83.1632L219.011 88.2653V81.1224Z" fill="#C5E2FF"/>
<path d="M235.083 63.5204C233.297 62.5 231.001 62.7551 228.705 64.0306L227.429 64.7959C222.583 67.602 218.756 74.7449 218.756 81.1225V103.827L219.776 104.337L238.144 93.6225V70.9184C238.399 67.3469 237.123 64.7959 235.083 63.5204Z" fill="#0052B4"/>
<path d="M227.43 86.4796C226.92 86.4796 226.409 86.4796 225.899 86.2245C224.369 85.7143 223.603 84.1837 223.348 82.1429C222.838 78.3163 224.879 73.4694 227.94 71.1735C229.471 69.898 231.256 69.6429 232.787 70.1531C234.317 70.6633 235.083 72.1939 235.338 74.2347C235.848 78.0612 233.807 82.9082 230.746 85.2041C229.471 85.9694 228.45 86.4796 227.43 86.4796ZM231.256 71.6837C230.746 71.6837 229.981 71.9388 229.215 72.449C226.664 74.2347 224.879 78.5714 225.389 81.6327C225.644 82.9082 226.154 83.9286 226.92 84.1837C227.685 84.4388 228.705 84.1837 229.726 83.4184C232.277 81.6327 234.062 77.2959 233.552 74.2347C233.297 72.9592 232.787 71.9388 232.022 71.6837C231.766 71.6837 231.511 71.6837 231.256 71.6837Z" fill="#50A8FF"/>
<path d="M116.969 82.6531L80.9994 61.4797C79.979 60.4593 78.1933 60.4593 76.4075 61.4797L42.479 81.1225C40.6933 82.1429 38.9075 84.1837 37.8871 86.4797L34.3157 93.8776C33.2953 96.1735 32.53 98.4695 32.53 100.51V163.265C32.53 166.072 33.5504 168.112 35.3361 169.133L72.3259 190.816L76.6627 180.357L82.0198 177.296C84.5708 175.765 86.6116 172.449 86.6116 169.388V156.378L116.969 82.6531Z" fill="#50A8FF"/>
<path d="M72.8367 192.602L34.3163 170.153C32.2755 169.133 31 166.582 31 163.265V100.51C31 98.2144 31.7653 95.6634 32.7857 93.1124L36.3571 85.7144C37.6327 83.1634 39.4184 80.8674 41.7143 79.847L75.3878 60.4593C77.6837 59.1838 79.9796 59.1838 81.7653 60.4593L118.5 82.143L87.6327 156.633V169.388C87.6327 172.704 85.3367 176.786 82.5306 178.316L77.4286 181.123L72.8367 192.602ZM78.9592 62.245C78.1939 62.245 77.4286 62.5001 76.9184 62.7552L43.2449 82.3981C41.7143 83.4185 40.1837 85.2042 39.1633 87.245L35.3367 94.3879C34.3163 96.4287 33.8061 98.4695 33.8061 100.51V163.265C33.8061 165.561 34.5714 167.092 35.8469 167.857L71.5612 188.776L75.3878 179.337L81.2551 176.021C83.2959 174.745 85.0816 171.684 85.0816 169.388V155.867L115.184 83.1634L80.2347 62.7552C79.7245 62.245 79.4694 62.245 78.9592 62.245Z" fill="#0052B4"/>
<path d="M99.1119 145.918L121.561 91.8368L85.5915 70.6633C84.5711 69.6429 82.7854 69.6429 80.9997 70.6633L47.0711 90.3061C45.2854 91.3266 43.4997 93.3674 42.4793 95.6633L38.6527 103.061C37.6323 105.357 36.867 107.653 36.867 109.694V110.714L99.1119 145.918Z" fill="#C5E2FF"/>
<path d="M122.581 85.2042L119.01 82.143C117.479 80.8675 115.183 80.6124 112.632 82.143L78.9586 101.531C76.9178 102.806 74.8769 104.847 73.6014 107.398L70.03 114.796C68.7545 117.347 68.2443 119.898 68.2443 122.194V184.949C68.2443 188.265 69.5198 190.816 71.8157 191.837L101.408 207.653C102.173 208.163 102.938 208.163 103.703 208.163C104.979 208.163 106.254 207.653 107.53 206.888L119.52 200C122.326 198.214 124.622 194.388 124.622 191.072V91.0716C124.877 88.5205 124.112 86.4797 122.581 85.2042Z" fill="#0052B4"/>
<path d="M124.623 131.888L122.582 133.163V113.776L124.623 112.755V131.888Z" fill="#50A8FF"/>
<path d="M97.0708 152.551C96.0504 152.551 95.2851 152.296 94.2647 151.786C92.479 150.765 91.2035 148.47 91.2035 145.408C91.2035 144.133 91.4586 142.857 91.7137 141.582L96.3055 125.51C96.8157 123.47 98.0912 121.939 99.877 120.918C101.152 120.153 102.173 120.153 102.683 120.408C103.448 120.663 103.959 121.174 104.469 121.939L108.295 130.612L109.316 132.908C109.571 133.674 109.571 134.694 109.571 135.714C109.571 141.327 105.744 147.959 100.897 150.765C99.6219 152.041 98.3463 152.551 97.0708 152.551ZM102.173 122.704C101.918 122.704 101.663 122.704 101.152 122.959C100.132 123.725 99.1117 124.745 98.6015 126.276L94.0096 142.092C93.4994 143.367 93.4994 144.388 93.4994 145.663C93.4994 147.704 94.2647 149.235 95.2851 150C96.5606 150.765 98.0912 150.51 99.877 149.49C103.959 146.939 107.53 141.072 107.53 136.225C107.53 135.204 107.53 134.439 107.02 133.674L106.765 132.653L102.428 123.214C102.428 122.704 102.428 122.704 102.173 122.704Z" fill="#50A8FF"/>
<path d="M91.7134 57.9082C91.7134 57.6531 91.7134 57.1429 91.4583 57.1429L70.0297 44.6429C70.0297 44.6429 69.7746 44.6429 69.7746 44.3878C69.0093 44.1327 67.9889 44.1327 66.9685 44.898C65.1828 45.9184 63.6521 48.2143 63.1419 50.5102L57.0195 77.0409C56.5093 79.0817 57.2746 80.6123 58.295 81.1225L78.9583 93.3674C79.4685 93.6225 79.9787 93.3674 79.9787 92.8572L91.7134 57.9082Z" fill="#50A8FF"/>
<path d="M79.4688 94.1328C79.2137 94.1328 78.9586 94.1328 78.7035 93.8777L58.0402 81.6328C56.5096 81.1226 55.7443 79.0818 56.2545 76.5307L62.3769 50.0001C62.8871 47.4491 64.6729 44.8981 66.7137 43.6226C67.9892 42.8573 69.2647 42.6022 70.5402 43.1124C70.7953 43.1124 70.7953 43.3675 71.0504 43.3675L92.479 55.8675C93.2443 56.3777 93.4994 57.143 93.2443 57.9083L81.7647 92.6022C81.5096 93.1124 81.2545 93.6226 80.7443 93.6226C79.7239 94.1328 79.4688 94.1328 79.4688 94.1328ZM68.7545 45.1532C68.2443 45.1532 67.9892 45.4083 67.479 45.6634C65.9484 46.6838 64.6729 48.7246 64.1627 50.5103L58.0402 77.0409C57.7851 78.5716 58.0402 79.592 58.8055 79.8471L79.4688 91.8369L90.6933 57.6532L69.2647 45.4083C69.0096 45.1532 69.0096 45.1532 68.7545 45.1532Z" fill="#0052B4"/>
<path d="M72.0708 50.7654C72.0708 50.7654 71.8157 50.7654 71.8157 50.5103C71.0504 50.2552 70.03 50.2552 69.0096 51.0205C67.2239 52.0409 65.6933 54.3368 65.1831 56.6327L61.8668 70.6633L86.6117 85.2042L93.4994 64.0307C93.4994 63.7756 93.4994 63.2654 93.2443 63.2654L72.0708 50.7654Z" fill="#C5E2FF"/>
<path d="M94.0091 59.6941C94.0091 58.1634 93.2438 56.8879 92.2234 56.3777C91.203 55.8675 89.6724 55.8675 88.1418 56.8879C86.101 58.1634 84.3153 60.7145 83.8051 63.2655L77.6826 89.7961C77.1724 92.092 77.6826 93.8777 78.9581 94.643C79.4683 94.8981 79.9785 95.1532 80.7438 95.1532C81.5091 95.1532 82.2744 94.8981 83.2948 94.3879L90.1826 90.0512C92.7336 88.5206 94.7744 84.9492 94.5193 82.143L94.0091 59.6941Z" fill="#0052B4"/>
<path d="M256.255 339.286C257.101 339.286 257.786 338.943 257.786 338.52C257.786 338.098 257.101 337.755 256.255 337.755C255.41 337.755 254.725 338.098 254.725 338.52C254.725 338.943 255.41 339.286 256.255 339.286Z" fill="#0052B4"/>
<path d="M250.643 335.97C251.488 335.97 252.173 335.627 252.173 335.204C252.173 334.782 251.488 334.439 250.643 334.439C249.798 334.439 249.112 334.782 249.112 335.204C249.112 335.627 249.798 335.97 250.643 335.97Z" fill="#0052B4"/>
<path d="M244.01 331.378C243.499 331.633 243.499 332.398 244.01 332.653C244.52 332.908 245.54 332.908 246.05 332.653C246.561 332.398 246.561 331.633 246.05 331.378C245.54 330.867 244.52 330.867 244.01 331.378Z" fill="#0052B4"/>
<path d="M238.399 328.061C237.888 328.316 237.888 329.082 238.399 329.337C238.909 329.592 239.929 329.592 240.439 329.337C240.95 329.082 240.95 328.316 240.439 328.061C239.929 327.806 238.909 327.806 238.399 328.061Z" fill="#0052B4"/>
<path d="M260.847 334.694C260.337 334.949 260.337 335.714 260.847 335.97C261.357 336.225 262.378 336.225 262.888 335.97C263.398 335.714 263.398 334.949 262.888 334.694C262.378 334.184 261.357 334.184 260.847 334.694Z" fill="#0052B4"/>
<path d="M255.235 331.378C254.724 331.633 254.724 332.398 255.235 332.653C255.745 332.908 256.765 332.908 257.276 332.653C257.786 332.398 257.786 331.633 257.276 331.378C256.765 330.867 255.745 330.867 255.235 331.378Z" fill="#0052B4"/>
<path d="M249.622 328.061C249.112 328.316 249.112 329.082 249.622 329.337C250.132 329.592 251.153 329.592 251.663 329.337C252.173 329.082 252.173 328.316 251.663 328.061C251.153 327.806 250.132 327.806 249.622 328.061Z" fill="#0052B4"/>
<path d="M244.01 324.745C243.499 325 243.499 325.766 244.01 326.021C244.52 326.276 245.54 326.276 246.05 326.021C246.561 325.766 246.561 325 246.05 324.745C245.54 324.49 244.52 324.49 244.01 324.745Z" fill="#0052B4"/>
<path d="M266.46 331.378C265.95 331.633 265.95 332.398 266.46 332.653C266.97 332.908 267.99 332.908 268.501 332.653C269.011 332.398 269.011 331.633 268.501 331.378C267.99 330.867 266.97 330.867 266.46 331.378Z" fill="#0052B4"/>
<path d="M260.847 328.061C260.337 328.316 260.337 329.082 260.847 329.337C261.357 329.592 262.378 329.592 262.888 329.337C263.398 329.082 263.398 328.316 262.888 328.061C262.378 327.806 261.357 327.806 260.847 328.061Z" fill="#0052B4"/>
<path d="M256.255 326.276C257.101 326.276 257.786 325.933 257.786 325.51C257.786 325.088 257.101 324.745 256.255 324.745C255.41 324.745 254.725 325.088 254.725 325.51C254.725 325.933 255.41 326.276 256.255 326.276Z" fill="#0052B4"/>
<path d="M249.622 321.684C249.112 321.939 249.112 322.704 249.622 322.959C250.132 323.214 251.153 323.214 251.663 322.959C252.173 322.704 252.173 321.939 251.663 321.684C251.153 321.174 250.132 321.174 249.622 321.684Z" fill="#0052B4"/>
<path d="M272.071 328.061C271.561 328.316 271.561 329.082 272.071 329.337C272.581 329.592 273.601 329.592 274.112 329.337C274.622 329.082 274.622 328.316 274.112 328.061C273.601 327.806 272.581 327.806 272.071 328.061Z" fill="#0052B4"/>
<path d="M266.46 324.745C265.95 325 265.95 325.766 266.46 326.021C266.97 326.276 267.99 326.276 268.501 326.021C269.011 325.766 269.011 325 268.501 324.745C267.99 324.49 266.97 324.49 266.46 324.745Z" fill="#0052B4"/>
<path d="M260.847 321.684C260.337 321.939 260.337 322.704 260.847 322.959C261.357 323.214 262.378 323.214 262.888 322.959C263.398 322.704 263.398 321.939 262.888 321.684C262.378 321.174 261.357 321.174 260.847 321.684Z" fill="#0052B4"/>
<path d="M255.235 318.368C254.724 318.623 254.724 319.388 255.235 319.643C255.745 319.898 256.765 319.898 257.276 319.643C257.786 319.388 257.786 318.623 257.276 318.368C256.765 318.112 255.745 318.112 255.235 318.368Z" fill="#0052B4"/>
<path d="M277.683 324.745C277.173 325 277.173 325.766 277.683 326.021C278.194 326.276 279.214 326.276 279.724 326.021C280.234 325.766 280.234 325 279.724 324.745C279.214 324.49 278.194 324.49 277.683 324.745Z" fill="#0052B4"/>
<path d="M272.071 321.684C271.561 321.939 271.561 322.704 272.071 322.959C272.581 323.214 273.601 323.214 274.112 322.959C274.622 322.704 274.622 321.939 274.112 321.684C273.601 321.174 272.581 321.174 272.071 321.684Z" fill="#0052B4"/>
<path d="M266.46 318.368C265.95 318.623 265.95 319.388 266.46 319.643C266.97 319.898 267.99 319.898 268.501 319.643C269.011 319.388 269.011 318.623 268.501 318.368C267.99 318.112 266.97 318.112 266.46 318.368Z" fill="#0052B4"/>
<path d="M260.847 315.051C260.337 315.306 260.337 316.072 260.847 316.327C261.357 316.582 262.378 316.582 262.888 316.327C263.398 316.072 263.398 315.306 262.888 315.051C262.378 314.796 261.357 314.796 260.847 315.051Z" fill="#0052B4"/>
<path d="M283.296 321.684C282.786 321.939 282.786 322.704 283.296 322.959C283.806 323.214 284.827 323.214 285.337 322.959C285.847 322.704 285.847 321.939 285.337 321.684C284.827 321.174 284.061 321.174 283.296 321.684Z" fill="#0052B4"/>
<path d="M277.683 318.368C277.173 318.623 277.173 319.388 277.683 319.643C278.194 319.898 279.214 319.898 279.724 319.643C280.234 319.388 280.234 318.623 279.724 318.368C279.214 318.112 278.194 318.112 277.683 318.368Z" fill="#0052B4"/>
<path d="M272.071 315.051C271.561 315.306 271.561 316.072 272.071 316.327C272.581 316.582 273.601 316.582 274.112 316.327C274.622 316.072 274.622 315.306 274.112 315.051C273.601 314.796 272.581 314.796 272.071 315.051Z" fill="#0052B4"/>
<path d="M266.46 311.735C265.95 311.99 265.95 312.755 266.46 313.01C266.97 313.265 267.99 313.265 268.501 313.01C269.011 312.755 269.011 311.99 268.501 311.735C267.99 311.48 266.97 311.48 266.46 311.735Z" fill="#0052B4"/>
<path d="M288.908 318.368C288.398 318.623 288.398 319.388 288.908 319.643C289.419 319.898 290.439 319.898 290.949 319.643C291.459 319.388 291.459 318.623 290.949 318.368C290.439 318.112 289.674 318.112 288.908 318.368Z" fill="#0052B4"/>
<path d="M283.296 315.051C282.786 315.306 282.786 316.072 283.296 316.327C283.806 316.582 284.827 316.582 285.337 316.327C285.847 316.072 285.847 315.306 285.337 315.051C284.827 314.796 284.061 314.796 283.296 315.051Z" fill="#0052B4"/>
<path d="M277.683 311.735C277.173 311.99 277.173 312.755 277.683 313.01C278.194 313.265 279.214 313.265 279.724 313.01C280.234 312.755 280.234 311.99 279.724 311.735C279.214 311.48 278.194 311.48 277.683 311.735Z" fill="#0052B4"/>
<path d="M272.071 308.674C271.561 308.929 271.561 309.694 272.071 309.949C272.581 310.204 273.601 310.204 274.112 309.949C274.622 309.694 274.622 308.929 274.112 308.674C273.601 308.163 272.581 308.163 272.071 308.674Z" fill="#0052B4"/>
<path d="M294.521 315.051C294.011 315.306 294.011 316.072 294.521 316.327C295.031 316.582 296.052 316.582 296.562 316.327C297.072 316.072 297.072 315.306 296.562 315.051C296.052 314.796 295.286 314.796 294.521 315.051Z" fill="#0052B4"/>
<path d="M288.908 311.735C288.398 311.99 288.398 312.755 288.908 313.01C289.419 313.265 290.439 313.265 290.949 313.01C291.459 312.755 291.459 311.99 290.949 311.735C290.439 311.48 289.674 311.48 288.908 311.735Z" fill="#0052B4"/>
<path d="M283.296 308.674C282.786 308.929 282.786 309.694 283.296 309.949C283.806 310.204 284.827 310.204 285.337 309.949C285.847 309.694 285.847 308.929 285.337 308.674C284.827 308.163 284.061 308.163 283.296 308.674Z" fill="#0052B4"/>
<path d="M277.683 305.357C277.173 305.612 277.173 306.378 277.683 306.633C278.194 306.888 279.214 306.888 279.724 306.633C280.234 306.378 280.234 305.612 279.724 305.357C279.214 305.102 278.194 305.102 277.683 305.357Z" fill="#0052B4"/>
<path d="M300.132 311.735C299.622 311.99 299.622 312.755 300.132 313.01C300.642 313.265 301.663 313.265 302.173 313.01C302.683 312.755 302.683 311.99 302.173 311.735C301.663 311.48 300.897 311.48 300.132 311.735Z" fill="#0052B4"/>
<path d="M294.521 308.674C294.011 308.929 294.011 309.694 294.521 309.949C295.031 310.204 296.052 310.204 296.562 309.949C297.072 309.694 297.072 308.929 296.562 308.674C296.052 308.163 295.286 308.163 294.521 308.674Z" fill="#0052B4"/>
<path d="M288.908 305.357C288.398 305.612 288.398 306.378 288.908 306.633C289.419 306.888 290.439 306.888 290.949 306.633C291.459 306.378 291.459 305.612 290.949 305.357C290.439 305.102 289.674 305.102 288.908 305.357Z" fill="#0052B4"/>
<path d="M284.317 303.572C285.162 303.572 285.847 303.229 285.847 302.806C285.847 302.384 285.162 302.041 284.317 302.041C283.471 302.041 282.786 302.384 282.786 302.806C282.786 303.229 283.471 303.572 284.317 303.572Z" fill="#0052B4"/>
<path d="M305.745 308.674C305.234 308.929 305.234 309.694 305.745 309.949C306.255 310.204 307.275 310.204 307.785 309.949C308.296 309.694 308.296 308.929 307.785 308.674C307.53 308.163 306.51 308.163 305.745 308.674Z" fill="#0052B4"/>
<path d="M300.132 305.357C299.622 305.612 299.622 306.378 300.132 306.633C300.642 306.888 301.663 306.888 302.173 306.633C302.683 306.378 302.683 305.612 302.173 305.357C301.663 305.102 300.897 305.102 300.132 305.357Z" fill="#0052B4"/>
<path d="M294.521 302.041C294.011 302.296 294.011 303.061 294.521 303.316C295.031 303.572 296.052 303.572 296.562 303.316C297.072 303.061 297.072 302.296 296.562 302.041C296.052 301.786 295.286 301.786 294.521 302.041Z" fill="#0052B4"/>
<path d="M288.908 298.98C288.398 299.235 288.398 300 288.908 300.255C289.419 300.51 290.439 300.51 290.949 300.255C291.459 300 291.459 299.235 290.949 298.98C290.439 298.469 289.674 298.469 288.908 298.98Z" fill="#0052B4"/>
<path d="M311.357 305.357C310.847 305.612 310.847 306.378 311.357 306.633C311.867 306.888 312.888 306.888 313.398 306.633C313.908 306.378 313.908 305.612 313.398 305.357C313.143 305.102 312.122 305.102 311.357 305.357Z" fill="#0052B4"/>
<path d="M305.745 302.041C305.234 302.296 305.234 303.061 305.745 303.316C306.255 303.572 307.275 303.572 307.785 303.316C308.296 303.061 308.296 302.296 307.785 302.041C307.53 301.786 306.51 301.786 305.745 302.041Z" fill="#0052B4"/>
<path d="M301.409 300.255C302.254 300.255 302.939 299.913 302.939 299.49C302.939 299.067 302.254 298.725 301.409 298.725C300.563 298.725 299.878 299.067 299.878 299.49C299.878 299.913 300.563 300.255 301.409 300.255Z" fill="#0052B4"/>
<path d="M294.521 295.663C294.011 295.919 294.011 296.684 294.521 296.939C295.031 297.194 296.052 297.194 296.562 296.939C297.072 296.684 297.072 295.919 296.562 295.663C296.052 295.408 295.286 295.408 294.521 295.663Z" fill="#0052B4"/>
<path d="M317.224 302.041C316.714 302.296 316.714 303.061 317.224 303.316C317.734 303.572 318.755 303.572 319.265 303.316C319.775 303.061 319.775 302.296 319.265 302.041C318.755 301.786 317.734 301.786 317.224 302.041Z" fill="#0052B4"/>
<path d="M311.357 298.98C310.847 299.235 310.847 300 311.357 300.255C311.867 300.51 312.888 300.51 313.398 300.255C313.908 300 313.908 299.235 313.398 298.98C313.143 298.469 312.122 298.469 311.357 298.98Z" fill="#0052B4"/>
<path d="M305.745 295.663C305.234 295.919 305.234 296.684 305.745 296.939C306.255 297.194 307.275 297.194 307.785 296.939C308.296 296.684 308.296 295.919 307.785 295.663C307.53 295.408 306.51 295.408 305.745 295.663Z" fill="#0052B4"/>
<path d="M300.132 292.347C299.622 292.602 299.622 293.367 300.132 293.623C300.642 293.878 301.663 293.878 302.173 293.623C302.683 293.367 302.683 292.602 302.173 292.347C301.663 292.092 300.897 292.092 300.132 292.347Z" fill="#0052B4"/>
<path d="M322.837 298.98C322.327 299.235 322.327 300 322.837 300.255C323.347 300.51 324.367 300.51 324.878 300.255C325.388 300 325.388 299.235 324.878 298.98C324.367 298.469 323.347 298.469 322.837 298.98Z" fill="#0052B4"/>
<path d="M317.224 295.663C316.714 295.919 316.714 296.684 317.224 296.939C317.734 297.194 318.755 297.194 319.265 296.939C319.775 296.684 319.775 295.919 319.265 295.663C318.755 295.408 317.734 295.408 317.224 295.663Z" fill="#0052B4"/>
<path d="M311.357 292.347C310.847 292.602 310.847 293.367 311.357 293.623C311.867 293.878 312.888 293.878 313.398 293.623C313.908 293.367 313.908 292.602 313.398 292.347C313.143 292.092 312.122 292.092 311.357 292.347Z" fill="#0052B4"/>
<path d="M305.745 289.286C305.234 289.541 305.234 290.306 305.745 290.561C306.255 290.816 307.275 290.816 307.785 290.561C308.296 290.306 308.296 289.541 307.785 289.286C307.53 288.776 306.51 288.776 305.745 289.286Z" fill="#0052B4"/>
<path d="M328.449 295.663C327.939 295.918 327.939 296.684 328.449 296.939C328.96 297.194 329.98 297.194 330.49 296.939C331 296.684 331 295.918 330.49 295.663C329.98 295.153 328.96 295.153 328.449 295.663Z" fill="#0052B4"/>
<path d="M322.837 292.347C322.327 292.602 322.327 293.367 322.837 293.623C323.347 293.878 324.367 293.878 324.878 293.623C325.388 293.367 325.388 292.602 324.878 292.347C324.367 292.092 323.347 292.092 322.837 292.347Z" fill="#0052B4"/>
<path d="M317.224 289.031C316.714 289.286 316.714 290.051 317.224 290.306C317.734 290.561 318.755 290.561 319.265 290.306C319.775 290.051 319.775 289.286 319.265 289.031C318.755 288.776 317.734 288.776 317.224 289.031Z" fill="#0052B4"/>
<path d="M311.612 285.97C311.101 286.225 311.101 286.99 311.612 287.245C312.122 287.5 313.142 287.5 313.652 287.245C314.163 286.99 314.163 286.225 313.652 285.97C313.142 285.459 312.122 285.459 311.612 285.97Z" fill="#0052B4"/>
<path d="M328.449 289.031C327.939 289.286 327.939 290.051 328.449 290.306C328.96 290.561 329.98 290.561 330.49 290.306C331 290.051 331 289.286 330.49 289.031C329.98 288.776 328.96 288.776 328.449 289.031Z" fill="#0052B4"/>
<path d="M322.837 285.97C322.327 286.225 322.327 286.99 322.837 287.245C323.347 287.5 324.367 287.5 324.878 287.245C325.388 286.99 325.388 286.225 324.878 285.97C324.367 285.459 323.347 285.459 322.837 285.97Z" fill="#0052B4"/>
<path d="M317.224 282.653C316.714 282.908 316.714 283.674 317.224 283.929C317.734 284.184 318.755 284.184 319.265 283.929C319.775 283.674 319.775 282.908 319.265 282.653C318.755 282.398 317.734 282.398 317.224 282.653Z" fill="#0052B4"/>
<path d="M328.449 282.653C327.939 282.908 327.939 283.674 328.449 283.929C328.96 284.184 329.98 284.184 330.49 283.929C331 283.674 331 282.908 330.49 282.653C329.98 282.398 328.96 282.398 328.449 282.653Z" fill="#0052B4"/>
<path d="M322.837 279.337C322.327 279.592 322.327 280.357 322.837 280.612C323.347 280.867 324.367 280.867 324.878 280.612C325.388 280.357 325.388 279.592 324.878 279.337C324.367 279.082 323.347 279.082 322.837 279.337Z" fill="#0052B4"/>
<path d="M209.827 356.888C209.317 357.143 209.317 357.908 209.827 358.163C210.337 358.418 211.357 358.418 211.868 358.163C212.378 357.908 212.378 357.143 211.868 356.888C211.357 356.378 210.337 356.378 209.827 356.888Z" fill="#0052B4"/>
<path d="M204.214 353.572C203.704 353.827 203.704 354.592 204.214 354.847C204.725 355.102 205.745 355.102 206.255 354.847C206.765 354.592 206.765 353.827 206.255 353.572C205.745 353.061 204.725 353.061 204.214 353.572Z" fill="#0052B4"/>
<path d="M198.602 350.255C198.092 350.51 198.092 351.276 198.602 351.531C199.112 351.786 200.132 351.786 200.643 351.531C201.153 351.276 201.153 350.51 200.643 350.255C200.132 350 199.112 350 198.602 350.255Z" fill="#0052B4"/>
<path d="M192.989 346.939C192.479 347.194 192.479 347.959 192.989 348.214C193.499 348.47 194.52 348.47 195.03 348.214C195.54 347.959 195.54 347.194 195.03 346.939C194.52 346.684 193.499 346.684 192.989 346.939Z" fill="#0052B4"/>
<path d="M187.378 343.878C186.868 344.133 186.868 344.898 187.378 345.153C187.888 345.408 188.909 345.408 189.419 345.153C189.929 344.898 189.929 344.133 189.419 343.878C188.909 343.367 187.888 343.367 187.378 343.878Z" fill="#0052B4"/>
<path d="M182.786 341.837C183.632 341.837 184.317 341.494 184.317 341.072C184.317 340.649 183.632 340.306 182.786 340.306C181.941 340.306 181.256 340.649 181.256 341.072C181.256 341.494 181.941 341.837 182.786 341.837Z" fill="#0052B4"/>
<path d="M176.153 337.245C175.643 337.5 175.643 338.265 176.153 338.52C176.663 338.776 177.684 338.776 178.194 338.52C178.704 338.265 178.704 337.5 178.194 337.245C177.684 336.99 176.663 336.99 176.153 337.245Z" fill="#0052B4"/>
<path d="M170.541 334.184C170.03 334.439 170.03 335.204 170.541 335.459C171.051 335.714 172.071 335.714 172.581 335.459C173.092 335.204 173.092 334.439 172.581 334.184C172.071 333.674 171.051 333.674 170.541 334.184Z" fill="#0052B4"/>
<path d="M164.928 330.867C164.418 331.122 164.418 331.888 164.928 332.143C165.438 332.398 166.459 332.398 166.969 332.143C167.479 331.888 167.479 331.122 166.969 330.867C166.459 330.612 165.438 330.612 164.928 330.867Z" fill="#0052B4"/>
<path d="M160.336 329.082C161.181 329.082 161.867 328.739 161.867 328.316C161.867 327.894 161.181 327.551 160.336 327.551C159.491 327.551 158.806 327.894 158.806 328.316C158.806 328.739 159.491 329.082 160.336 329.082Z" fill="#0052B4"/>
<path d="M153.704 324.235C153.194 324.49 153.194 325.255 153.704 325.51C154.215 325.765 155.235 325.765 155.745 325.51C156.255 325.255 156.255 324.49 155.745 324.235C155.235 323.98 154.215 323.98 153.704 324.235Z" fill="#0052B4"/>
<path d="M147.837 321.173C147.327 321.429 147.327 322.194 147.837 322.449C148.348 322.704 149.368 322.704 149.878 322.449C150.388 322.194 150.388 321.429 149.878 321.173C149.623 320.663 148.603 320.663 147.837 321.173Z" fill="#0052B4"/>
<path d="M221.05 356.888C220.54 357.143 220.54 357.908 221.05 358.163C221.561 358.418 222.581 358.418 223.091 358.163C223.601 357.908 223.601 357.143 223.091 356.888C222.581 356.378 221.816 356.378 221.05 356.888Z" fill="#0052B4"/>
<path d="M215.439 353.572C214.929 353.827 214.929 354.592 215.439 354.847C215.95 355.102 216.97 355.102 217.48 354.847C217.99 354.592 217.99 353.827 217.48 353.572C216.97 353.061 216.205 353.061 215.439 353.572Z" fill="#0052B4"/>
<path d="M209.827 350.255C209.317 350.51 209.317 351.276 209.827 351.531C210.337 351.786 211.357 351.786 211.868 351.531C212.378 351.276 212.378 350.51 211.868 350.255C211.357 350 210.337 350 209.827 350.255Z" fill="#0052B4"/>
<path d="M204.214 346.939C203.704 347.194 203.704 347.959 204.214 348.214C204.725 348.47 205.745 348.47 206.255 348.214C206.765 347.959 206.765 347.194 206.255 346.939C205.745 346.684 204.725 346.684 204.214 346.939Z" fill="#0052B4"/>
<path d="M198.602 343.878C198.092 344.133 198.092 344.898 198.602 345.153C199.112 345.408 200.132 345.408 200.643 345.153C201.153 344.898 201.153 344.133 200.643 343.878C200.132 343.367 199.112 343.367 198.602 343.878Z" fill="#0052B4"/>
<path d="M194.01 341.837C194.855 341.837 195.541 341.494 195.541 341.072C195.541 340.649 194.855 340.306 194.01 340.306C193.165 340.306 192.479 340.649 192.479 341.072C192.479 341.494 193.165 341.837 194.01 341.837Z" fill="#0052B4"/>
<path d="M187.378 337.245C186.868 337.5 186.868 338.265 187.378 338.52C187.888 338.776 188.909 338.776 189.419 338.52C189.929 338.265 189.929 337.5 189.419 337.245C188.909 336.99 187.888 336.99 187.378 337.245Z" fill="#0052B4"/>
<path d="M182.786 335.459C183.632 335.459 184.317 335.117 184.317 334.694C184.317 334.271 183.632 333.929 182.786 333.929C181.941 333.929 181.256 334.271 181.256 334.694C181.256 335.117 181.941 335.459 182.786 335.459Z" fill="#0052B4"/>
<path d="M176.153 330.867C175.643 331.122 175.643 331.888 176.153 332.143C176.663 332.398 177.684 332.398 178.194 332.143C178.704 331.888 178.704 331.122 178.194 330.867C177.684 330.612 176.663 330.612 176.153 330.867Z" fill="#0052B4"/>
<path d="M170.541 327.551C170.03 327.806 170.03 328.572 170.541 328.827C171.051 329.082 172.071 329.082 172.581 328.827C173.092 328.572 173.092 327.806 172.581 327.551C172.071 327.296 171.051 327.296 170.541 327.551Z" fill="#0052B4"/>
<path d="M164.928 324.235C164.418 324.49 164.418 325.255 164.928 325.51C165.438 325.765 166.459 325.765 166.969 325.51C167.479 325.255 167.479 324.49 166.969 324.235C166.459 323.98 165.438 323.98 164.928 324.235Z" fill="#0052B4"/>
<path d="M159.317 321.173C158.807 321.429 158.807 322.194 159.317 322.449C159.827 322.704 160.848 322.704 161.358 322.449C161.868 322.194 161.868 321.429 161.358 321.173C160.848 320.663 159.827 320.663 159.317 321.173Z" fill="#0052B4"/>
<path d="M153.704 317.857C153.194 318.112 153.194 318.878 153.704 319.133C154.215 319.388 155.235 319.388 155.745 319.133C156.255 318.878 156.255 318.112 155.745 317.857C155.235 317.602 154.215 317.602 153.704 317.857Z" fill="#0052B4"/>
<path d="M226.663 353.572C226.153 353.827 226.153 354.592 226.663 354.847C227.173 355.102 228.194 355.102 228.704 354.847C229.214 354.592 229.214 353.827 228.704 353.572C228.194 353.061 227.428 353.061 226.663 353.572Z" fill="#0052B4"/>
<path d="M221.05 350.255C220.54 350.51 220.54 351.276 221.05 351.531C221.561 351.786 222.581 351.786 223.091 351.531C223.601 351.276 223.601 350.51 223.091 350.255C222.581 350 221.816 350 221.05 350.255Z" fill="#0052B4"/>
<path d="M215.439 346.939C214.929 347.194 214.929 347.959 215.439 348.214C215.95 348.47 216.97 348.47 217.48 348.214C217.99 347.959 217.99 347.194 217.48 346.939C216.97 346.684 216.205 346.684 215.439 346.939Z" fill="#0052B4"/>
<path d="M210.848 345.153C211.693 345.153 212.378 344.811 212.378 344.388C212.378 343.965 211.693 343.623 210.848 343.623C210.002 343.623 209.317 343.965 209.317 344.388C209.317 344.811 210.002 345.153 210.848 345.153Z" fill="#0052B4"/>
<path d="M204.214 340.561C203.704 340.816 203.704 341.582 204.214 341.837C204.725 342.092 205.745 342.092 206.255 341.837C206.765 341.582 206.765 340.816 206.255 340.561C205.745 340.306 204.725 340.306 204.214 340.561Z" fill="#0052B4"/>
<path d="M198.602 337.245C198.092 337.5 198.092 338.265 198.602 338.52C199.112 338.776 200.132 338.776 200.643 338.52C201.153 338.265 201.153 337.5 200.643 337.245C200.132 336.99 199.112 336.99 198.602 337.245Z" fill="#0052B4"/>
<path d="M192.989 334.184C192.479 334.439 192.479 335.204 192.989 335.459C193.499 335.714 194.52 335.714 195.03 335.459C195.54 335.204 195.54 334.439 195.03 334.184C194.52 333.674 193.499 333.674 192.989 334.184Z" fill="#0052B4"/>
<path d="M187.378 330.867C186.868 331.122 186.868 331.888 187.378 332.143C187.888 332.398 188.909 332.398 189.419 332.143C189.929 331.888 189.929 331.122 189.419 330.867C188.909 330.612 187.888 330.612 187.378 330.867Z" fill="#0052B4"/>
<path d="M181.766 327.551C181.255 327.806 181.255 328.572 181.766 328.827C182.276 329.082 183.296 329.082 183.806 328.827C184.317 328.572 184.317 327.806 183.806 327.551C183.296 327.296 182.276 327.296 181.766 327.551Z" fill="#0052B4"/>
<path d="M176.153 324.235C175.643 324.49 175.643 325.255 176.153 325.51C176.663 325.765 177.684 325.765 178.194 325.51C178.704 325.255 178.704 324.49 178.194 324.235C177.684 323.98 176.663 323.98 176.153 324.235Z" fill="#0052B4"/>
<path d="M170.541 321.173C170.03 321.429 170.03 322.194 170.541 322.449C171.051 322.704 172.071 322.704 172.581 322.449C173.092 322.194 173.092 321.429 172.581 321.173C172.071 320.663 171.051 320.663 170.541 321.173Z" fill="#0052B4"/>
<path d="M164.928 317.857C164.418 318.112 164.418 318.878 164.928 319.133C165.438 319.388 166.459 319.388 166.969 319.133C167.479 318.878 167.479 318.112 166.969 317.857C166.459 317.602 165.438 317.602 164.928 317.857Z" fill="#0052B4"/>
<path d="M159.317 314.541C158.807 314.796 158.807 315.561 159.317 315.817C159.827 316.072 160.848 316.072 161.358 315.817C161.868 315.561 161.868 314.796 161.358 314.541C160.848 314.286 159.827 314.286 159.317 314.541Z" fill="#0052B4"/>
<path d="M232.53 350.255C232.02 350.51 232.02 351.276 232.53 351.531C233.04 351.786 234.061 351.786 234.571 351.531C235.081 351.276 235.081 350.51 234.571 350.255C234.061 350 233.04 350 232.53 350.255Z" fill="#0052B4"/>
<path d="M226.919 346.939C226.409 347.194 226.409 347.959 226.919 348.214C227.429 348.47 228.45 348.47 228.96 348.214C229.47 347.959 229.47 347.194 228.96 346.939C228.45 346.684 227.429 346.684 226.919 346.939Z" fill="#0052B4"/>
<path d="M221.05 343.878C220.54 344.133 220.54 344.898 221.05 345.153C221.561 345.408 222.581 345.408 223.091 345.153C223.601 344.898 223.601 344.133 223.091 343.878C222.836 343.367 221.816 343.367 221.05 343.878Z" fill="#0052B4"/>
<path d="M215.439 340.561C214.929 340.816 214.929 341.582 215.439 341.837C215.95 342.092 216.97 342.092 217.48 341.837C217.99 341.582 217.99 340.816 217.48 340.561C217.225 340.306 216.205 340.306 215.439 340.561Z" fill="#0052B4"/>
<path d="M238.143 346.939C237.632 347.194 237.632 347.959 238.143 348.214C238.653 348.47 239.673 348.47 240.183 348.214C240.694 347.959 240.694 347.194 240.183 346.939C239.673 346.684 238.653 346.684 238.143 346.939Z" fill="#0052B4"/>
<path d="M232.53 343.878C232.02 344.133 232.02 344.898 232.53 345.153C233.04 345.408 234.061 345.408 234.571 345.153C235.081 344.898 235.081 344.133 234.571 343.878C234.061 343.367 233.04 343.367 232.53 343.878Z" fill="#0052B4"/>
<path d="M227.938 341.837C228.784 341.837 229.469 341.494 229.469 341.072C229.469 340.649 228.784 340.306 227.938 340.306C227.093 340.306 226.408 340.649 226.408 341.072C226.408 341.494 227.093 341.837 227.938 341.837Z" fill="#0052B4"/>
<path d="M221.05 337.245C220.54 337.5 220.54 338.265 221.05 338.52C221.561 338.776 222.581 338.776 223.091 338.52C223.601 338.265 223.601 337.5 223.091 337.245C222.836 336.99 221.816 336.99 221.05 337.245Z" fill="#0052B4"/>
<path d="M244.776 345.153C245.621 345.153 246.306 344.811 246.306 344.388C246.306 343.965 245.621 343.623 244.776 343.623C243.931 343.623 243.245 343.965 243.245 344.388C243.245 344.811 243.931 345.153 244.776 345.153Z" fill="#0052B4"/>
<path d="M239.163 341.837C240.009 341.837 240.694 341.494 240.694 341.072C240.694 340.649 240.009 340.306 239.163 340.306C238.318 340.306 237.633 340.649 237.633 341.072C237.633 341.494 238.318 341.837 239.163 341.837Z" fill="#0052B4"/>
<path d="M232.53 337.245C232.02 337.5 232.02 338.265 232.53 338.52C233.04 338.776 234.061 338.776 234.571 338.52C235.081 338.265 235.081 337.5 234.571 337.245C234.061 336.99 233.04 336.99 232.53 337.245Z" fill="#0052B4"/>
<path d="M227.938 335.459C228.784 335.459 229.469 335.117 229.469 334.694C229.469 334.271 228.784 333.929 227.938 333.929C227.093 333.929 226.408 334.271 226.408 334.694C226.408 335.117 227.093 335.459 227.938 335.459Z" fill="#0052B4"/>
<path d="M249.368 340.561C248.857 340.816 248.857 341.582 249.368 341.837C249.878 342.092 250.898 342.092 251.408 341.837C251.919 341.582 251.919 340.816 251.408 340.561C250.898 340.306 249.878 340.306 249.368 340.561Z" fill="#0052B4"/>
<path d="M243.755 337.245C243.245 337.5 243.245 338.265 243.755 338.52C244.265 338.776 245.286 338.776 245.796 338.52C246.306 338.265 246.306 337.5 245.796 337.245C245.286 336.99 244.265 336.99 243.755 337.245Z" fill="#0052B4"/>
<path d="M239.163 335.459C240.009 335.459 240.694 335.117 240.694 334.694C240.694 334.271 240.009 333.929 239.163 333.929C238.318 333.929 237.633 334.271 237.633 334.694C237.633 335.117 238.318 335.459 239.163 335.459Z" fill="#0052B4"/>
<path d="M233.551 332.143C234.396 332.143 235.081 331.8 235.081 331.378C235.081 330.955 234.396 330.612 233.551 330.612C232.705 330.612 232.02 330.955 232.02 331.378C232.02 331.8 232.705 332.143 233.551 332.143Z" fill="#0052B4"/>
<path d="M144.52 317.857C144.01 317.602 142.99 317.602 142.479 317.857C141.969 318.112 141.969 318.878 142.479 319.133C142.99 319.388 144.01 319.388 144.52 319.133C145.03 318.878 145.03 318.367 144.52 317.857Z" fill="#0052B4"/>
<path d="M136.612 314.796C136.102 315.051 136.102 315.816 136.612 316.071C137.122 316.327 138.143 316.327 138.653 316.071C139.163 315.816 139.163 315.051 138.653 314.796C138.143 314.286 137.378 314.286 136.612 314.796Z" fill="#0052B4"/>
<path d="M132.02 312.755C132.866 312.755 133.551 312.413 133.551 311.99C133.551 311.567 132.866 311.225 132.02 311.225C131.175 311.225 130.49 311.567 130.49 311.99C130.49 312.413 131.175 312.755 132.02 312.755Z" fill="#0052B4"/>
<path d="M125.387 308.163C124.877 308.419 124.877 309.184 125.387 309.439C125.897 309.694 126.918 309.694 127.428 309.439C127.938 309.184 127.938 308.419 127.428 308.163C126.918 307.908 126.152 307.908 125.387 308.163Z" fill="#0052B4"/>
<path d="M119.776 304.847C119.266 305.102 119.266 305.867 119.776 306.123C120.286 306.378 121.307 306.378 121.817 306.123C122.327 305.867 122.327 305.102 121.817 304.847C121.307 304.592 120.286 304.592 119.776 304.847Z" fill="#0052B4"/>
<path d="M114.164 301.786C113.653 302.041 113.653 302.806 114.164 303.061C114.674 303.316 115.694 303.316 116.204 303.061C116.715 302.806 116.715 302.041 116.204 301.786C115.694 301.276 114.674 301.276 114.164 301.786Z" fill="#0052B4"/>
<path d="M108.551 298.469C108.041 298.725 108.041 299.49 108.551 299.745C109.061 300 110.082 300 110.592 299.745C111.102 299.49 111.102 298.725 110.592 298.469C110.082 298.214 109.061 298.214 108.551 298.469Z" fill="#0052B4"/>
<path d="M102.939 295.153C102.428 295.408 102.428 296.174 102.939 296.429C103.449 296.684 104.469 296.684 104.979 296.429C105.49 296.174 105.49 295.408 104.979 295.153C104.469 294.898 103.449 294.898 102.939 295.153Z" fill="#0052B4"/>
<path d="M150.133 314.796C149.622 314.541 148.602 314.541 148.092 314.796C147.582 315.051 147.582 315.816 148.092 316.072C148.602 316.327 149.622 316.327 150.133 316.072C150.643 315.561 150.643 315.051 150.133 314.796Z" fill="#0052B4"/>
<path d="M142.225 311.48C141.715 311.735 141.715 312.5 142.225 312.755C142.735 313.01 143.755 313.01 144.266 312.755C144.776 312.5 144.776 311.735 144.266 311.48C143.755 311.225 142.99 311.225 142.225 311.48Z" fill="#0052B4"/>
<path d="M136.612 308.163C136.102 308.419 136.102 309.184 136.612 309.439C137.122 309.694 138.143 309.694 138.653 309.439C139.163 309.184 139.163 308.419 138.653 308.163C138.143 307.908 137.378 307.908 136.612 308.163Z" fill="#0052B4"/>
<path d="M131 304.847C130.49 305.102 130.49 305.867 131 306.123C131.51 306.378 132.53 306.378 133.041 306.123C133.551 305.867 133.551 305.102 133.041 304.847C132.53 304.592 131.765 304.592 131 304.847Z" fill="#0052B4"/>
<path d="M125.387 301.786C124.877 302.041 124.877 302.806 125.387 303.061C125.897 303.316 126.918 303.316 127.428 303.061C127.938 302.806 127.938 302.041 127.428 301.786C126.918 301.276 126.152 301.276 125.387 301.786Z" fill="#0052B4"/>
<path d="M119.776 298.469C119.266 298.725 119.266 299.49 119.776 299.745C120.286 300 121.307 300 121.817 299.745C122.327 299.49 122.327 298.725 121.817 298.469C121.307 298.214 120.286 298.214 119.776 298.469Z" fill="#0052B4"/>
<path d="M114.164 295.153C113.653 295.408 113.653 296.174 114.164 296.429C114.674 296.684 115.694 296.684 116.204 296.429C116.715 296.174 116.715 295.408 116.204 295.153C115.694 294.898 114.674 294.898 114.164 295.153Z" fill="#0052B4"/>
<path d="M109.572 293.367C110.417 293.367 111.102 293.025 111.102 292.602C111.102 292.179 110.417 291.837 109.572 291.837C108.726 291.837 108.041 292.179 108.041 292.602C108.041 293.025 108.726 293.367 109.572 293.367Z" fill="#0052B4"/>
<path d="M102.939 288.776C102.428 289.031 102.428 289.796 102.939 290.051C103.449 290.306 104.469 290.306 104.979 290.051C105.49 289.796 105.49 289.031 104.979 288.776C104.469 288.52 103.449 288.52 102.939 288.776Z" fill="#0052B4"/>
<path d="M155.745 311.48C155.235 311.225 154.215 311.225 153.704 311.48C153.194 311.735 153.194 312.5 153.704 312.755C154.215 313.01 155.235 313.01 155.745 312.755C156.255 312.245 156.255 311.735 155.745 311.48Z" fill="#0052B4"/>
<path d="M147.837 308.163C147.327 308.419 147.327 309.184 147.837 309.439C148.348 309.694 149.368 309.694 149.878 309.439C150.388 309.184 150.388 308.419 149.878 308.163C149.623 307.908 148.603 307.908 147.837 308.163Z" fill="#0052B4"/>
<path d="M142.225 304.847C141.715 305.102 141.715 305.867 142.225 306.123C142.735 306.378 143.755 306.378 144.266 306.123C144.776 305.867 144.776 305.102 144.266 304.847C143.755 304.592 142.99 304.592 142.225 304.847Z" fill="#0052B4"/>
<path d="M136.612 301.786C136.102 302.041 136.102 302.806 136.612 303.061C137.122 303.316 138.143 303.316 138.653 303.061C139.163 302.806 139.163 302.041 138.653 301.786C138.143 301.276 137.378 301.276 136.612 301.786Z" fill="#0052B4"/>
<path d="M131 298.469C130.49 298.725 130.49 299.49 131 299.745C131.51 300 132.53 300 133.041 299.745C133.551 299.49 133.551 298.725 133.041 298.469C132.53 298.214 131.765 298.214 131 298.469Z" fill="#0052B4"/>
<path d="M125.387 295.153C124.877 295.408 124.877 296.174 125.387 296.429C125.897 296.684 126.918 296.684 127.428 296.429C127.938 296.174 127.938 295.408 127.428 295.153C126.918 294.898 126.152 294.898 125.387 295.153Z" fill="#0052B4"/>
<path d="M119.776 292.092C119.266 292.347 119.266 293.112 119.776 293.368C120.286 293.623 121.307 293.623 121.817 293.368C122.327 293.112 122.327 292.347 121.817 292.092C121.307 291.582 120.286 291.582 119.776 292.092Z" fill="#0052B4"/>
<path d="M114.164 288.776C113.653 289.031 113.653 289.796 114.164 290.051C114.674 290.306 115.694 290.306 116.204 290.051C116.715 289.796 116.715 289.031 116.204 288.776C115.694 288.52 114.674 288.52 114.164 288.776Z" fill="#0052B4"/>
<path d="M108.551 285.459C108.041 285.714 108.041 286.48 108.551 286.735C109.061 286.99 110.082 286.99 110.592 286.735C111.102 286.48 111.102 285.714 110.592 285.459C110.082 285.204 109.061 285.204 108.551 285.459Z" fill="#0052B4"/>
<path d="M103.959 283.674C104.805 283.674 105.49 283.331 105.49 282.908C105.49 282.486 104.805 282.143 103.959 282.143C103.114 282.143 102.429 282.486 102.429 282.908C102.429 283.331 103.114 283.674 103.959 283.674Z" fill="#0052B4"/>
</g>
<g filter="url(#filter0_d_1949_94)">
<rect x="1" y="30" width="221" height="45" rx="5" fill="white"/>
</g>
<path d="M1 35C1 32.2386 3.23858 30 6 30H46V75H6C3.23858 75 1 72.7614 1 70V35Z" fill="#FBFBFB"/>
<line x1="46.5" y1="30" x2="46.5" y2="75" stroke="#F0F0F0"/>
<path d="M63.3438 42H64.2813C64.2383 40.793 63.125 39.8906 61.5781 39.8906C60.0469 39.8906 58.8438 40.7812 58.8438 42.125C58.8438 43.2031 59.625 43.8438 60.875 44.2031L61.8594 44.4844C62.7031 44.7187 63.4531 45.0156 63.4531 45.8125C63.4531 46.6875 62.6094 47.2656 61.5 47.2656C60.5469 47.2656 59.7031 46.8437 59.625 45.9375H58.625C58.7188 47.25 59.7813 48.1406 61.5 48.1406C63.3438 48.1406 64.3906 47.125 64.3906 45.8281C64.3906 44.3281 62.9688 43.8438 62.1406 43.625L61.3281 43.4062C60.7344 43.25 59.7813 42.9375 59.7813 42.0781C59.7813 41.3125 60.4844 40.75 61.5469 40.75C62.5156 40.75 63.25 41.2109 63.3438 42ZM66.4209 50.3281C67.2646 50.3281 67.8428 49.8906 68.1865 48.9688L70.7646 42H69.7646L68.1084 46.7812H68.0459L66.3896 42H65.3896L67.6084 48.0313L67.4053 48.5938C67.0811 49.4922 66.6553 49.5781 65.9834 49.4062L65.749 50.2188C65.8428 50.2656 66.1084 50.3281 66.4209 50.3281ZM74.2041 48.125C75.8291 48.125 76.9229 46.8906 76.9229 45.0312C76.9229 43.1562 75.8291 41.9219 74.2041 41.9219C72.5791 41.9219 71.4854 43.1562 71.4854 45.0312C71.4854 46.8906 72.5791 48.125 74.2041 48.125ZM74.2041 47.2969C72.9697 47.2969 72.4072 46.2344 72.4072 45.0312C72.4072 43.8281 72.9697 42.75 74.2041 42.75C75.4385 42.75 76.001 43.8281 76.001 45.0312C76.001 46.2344 75.4385 47.2969 74.2041 47.2969ZM80.0957 48.1406C81.1426 48.1406 81.6895 47.5781 81.877 47.1875H81.9238V48H82.8457V44.0469C82.8457 42.1406 81.3926 41.9219 80.627 41.9219C79.7207 41.9219 78.6895 42.2344 78.2207 43.3281L79.0957 43.6406C79.2988 43.2031 79.7793 42.7344 80.6582 42.7344C81.5059 42.7344 81.9238 43.1836 81.9238 43.9531V43.9844C81.9238 44.4297 81.4707 44.3906 80.377 44.5313C79.2637 44.6758 78.0488 44.9219 78.0488 46.2969C78.0488 47.4687 78.9551 48.1406 80.0957 48.1406ZM80.2363 47.3125C79.502 47.3125 78.9707 46.9844 78.9707 46.3437C78.9707 45.6406 79.6113 45.4219 80.3301 45.3281C80.7207 45.2812 81.7676 45.1719 81.9238 44.9844V45.8281C81.9238 46.5781 81.3301 47.3125 80.2363 47.3125ZM84.5283 48H85.4502V45.7539L86.0947 45.1562L88.3408 48H89.5127L86.79 44.5625L89.3252 42H88.1846L85.5596 44.6719H85.4502V40H84.5283V48ZM97.8555 43.3437C97.5664 42.4922 96.918 41.9219 95.7305 41.9219C94.4648 41.9219 93.5273 42.6406 93.5273 43.6562C93.5273 44.4844 94.0195 45.0391 95.1211 45.2969L96.1211 45.5312C96.7266 45.6719 97.0117 45.9609 97.0117 46.375C97.0117 46.8906 96.4648 47.3125 95.6055 47.3125C94.8516 47.3125 94.3789 46.9883 94.2148 46.3437L93.3398 46.5625C93.5547 47.582 94.3945 48.125 95.6211 48.125C97.0156 48.125 97.9648 47.3633 97.9648 46.3281C97.9648 45.4922 97.4414 44.9648 96.3711 44.7031L95.4805 44.4844C94.7695 44.3086 94.4492 44.0703 94.4492 43.6094C94.4492 43.0937 94.9961 42.7187 95.7305 42.7187C96.5352 42.7187 96.8672 43.1641 97.0273 43.5781L97.8555 43.3437ZM101.868 48.125C103.087 48.125 103.978 47.5156 104.259 46.6094L103.368 46.3594C103.134 46.9844 102.591 47.2969 101.868 47.2969C100.786 47.2969 100.04 46.5977 99.9971 45.3125H104.353V44.9219C104.353 42.6875 103.024 41.9219 101.774 41.9219C100.149 41.9219 99.0713 43.2031 99.0713 45.0469C99.0713 46.8906 100.134 48.125 101.868 48.125ZM99.9971 44.5156C100.06 43.582 100.72 42.75 101.774 42.75C102.774 42.75 103.415 43.5 103.415 44.5156H99.9971ZM105.755 48H106.677V44.2031C106.677 43.3906 107.317 42.7969 108.192 42.7969C108.438 42.7969 108.692 42.8438 108.755 42.8594V41.9219C108.649 41.9141 108.407 41.9062 108.271 41.9062C107.552 41.9062 106.927 42.3125 106.708 42.9062H106.646V42H105.755V48ZM114.937 42H113.937L112.28 46.7812H112.218L110.562 42H109.562L111.78 48H112.718L114.937 42ZM118.454 48.125C119.673 48.125 120.563 47.5156 120.845 46.6094L119.954 46.3594C119.72 46.9844 119.177 47.2969 118.454 47.2969C117.372 47.2969 116.626 46.5977 116.583 45.3125H120.938V44.9219C120.938 42.6875 119.61 41.9219 118.36 41.9219C116.735 41.9219 115.657 43.2031 115.657 45.0469C115.657 46.8906 116.72 48.125 118.454 48.125ZM116.583 44.5156C116.646 43.582 117.306 42.75 118.36 42.75C119.36 42.75 120.001 43.5 120.001 44.5156H116.583ZM126.591 43.3437C126.302 42.4922 125.653 41.9219 124.466 41.9219C123.2 41.9219 122.263 42.6406 122.263 43.6562C122.263 44.4844 122.755 45.0391 123.856 45.2969L124.856 45.5312C125.462 45.6719 125.747 45.9609 125.747 46.375C125.747 46.8906 125.2 47.3125 124.341 47.3125C123.587 47.3125 123.114 46.9883 122.95 46.3437L122.075 46.5625C122.29 47.582 123.13 48.125 124.356 48.125C125.751 48.125 126.7 47.3633 126.7 46.3281C126.7 45.4922 126.177 44.9648 125.106 44.7031L124.216 44.4844C123.505 44.3086 123.185 44.0703 123.185 43.6094C123.185 43.0937 123.731 42.7187 124.466 42.7187C125.271 42.7187 125.603 43.1641 125.763 43.5781L126.591 43.3437ZM131.182 48H132.104V44.25C132.104 43.3711 132.744 42.75 133.463 42.75C134.162 42.75 134.65 43.207 134.65 43.8906V48H135.588V44.0937C135.588 43.3203 136.072 42.75 136.916 42.75C137.572 42.75 138.135 43.0977 138.135 43.9844V48H139.057V43.9844C139.057 42.5742 138.299 41.9219 137.229 41.9219C136.369 41.9219 135.74 42.3164 135.432 42.9375H135.369C135.072 42.2969 134.549 41.9219 133.76 41.9219C132.979 41.9219 132.4 42.2969 132.15 42.9375H132.072V42H131.182V48ZM143.18 48.125C144.805 48.125 145.898 46.8906 145.898 45.0312C145.898 43.1562 144.805 41.9219 143.18 41.9219C141.555 41.9219 140.461 43.1562 140.461 45.0312C140.461 46.8906 141.555 48.125 143.18 48.125ZM143.18 47.2969C141.945 47.2969 141.383 46.2344 141.383 45.0312C141.383 43.8281 141.945 42.75 143.18 42.75C144.414 42.75 144.977 43.8281 144.977 45.0312C144.977 46.2344 144.414 47.2969 143.18 47.2969ZM147.306 48H148.228V44.2031C148.228 43.3945 148.868 42.7969 149.743 42.7969C149.974 42.7969 150.146 42.8398 150.274 42.9062L150.587 42.125C150.399 41.9922 150.153 41.9062 149.821 41.9062C149.095 41.9062 148.474 42.3125 148.259 42.9062H148.196V42H147.306V48ZM153.86 48.125C155.079 48.125 155.97 47.5156 156.251 46.6094L155.36 46.3594C155.126 46.9844 154.583 47.2969 153.86 47.2969C152.778 47.2969 152.032 46.5977 151.989 45.3125H156.345V44.9219C156.345 42.6875 155.017 41.9219 153.767 41.9219C152.142 41.9219 151.063 43.2031 151.063 45.0469C151.063 46.8906 152.126 48.125 153.86 48.125ZM151.989 44.5156C152.052 43.582 152.712 42.75 153.767 42.75C154.767 42.75 155.407 43.5 155.407 44.5156H151.989ZM163.45 42H162.169V40.5625H161.247V42H160.341V42.7812H161.247V46.5312C161.247 47.5781 162.091 48.0781 162.872 48.0781C163.216 48.0781 163.435 48.0156 163.56 47.9687L163.372 47.1406C163.294 47.1562 163.169 47.1875 162.966 47.1875C162.56 47.1875 162.169 47.0625 162.169 46.2812V42.7812H163.45V42ZM165.888 44.3906C165.888 43.3437 166.556 42.75 167.466 42.75C168.333 42.75 168.856 43.2969 168.856 44.25V48H169.778V44.1875C169.778 42.6445 168.958 41.9219 167.731 41.9219C166.786 41.9219 166.247 42.3164 165.966 42.9375H165.888V40H164.966V48H165.888V44.3906ZM173.23 48.1406C174.277 48.1406 174.824 47.5781 175.012 47.1875H175.059V48H175.98V44.0469C175.98 42.1406 174.527 41.9219 173.762 41.9219C172.855 41.9219 171.824 42.2344 171.355 43.3281L172.23 43.6406C172.434 43.2031 172.914 42.7344 173.793 42.7344C174.641 42.7344 175.059 43.1836 175.059 43.9531V43.9844C175.059 44.4297 174.605 44.3906 173.512 44.5313C172.398 44.6758 171.184 44.9219 171.184 46.2969C171.184 47.4687 172.09 48.1406 173.23 48.1406ZM173.371 47.3125C172.637 47.3125 172.105 46.9844 172.105 46.3437C172.105 45.6406 172.746 45.4219 173.465 45.3281C173.855 45.2812 174.902 45.1719 175.059 44.9844V45.8281C175.059 46.5781 174.465 47.3125 173.371 47.3125ZM178.585 44.3906C178.585 43.3437 179.233 42.75 180.116 42.75C180.972 42.75 181.491 43.3086 181.491 44.25V48H182.413V44.1875C182.413 42.6562 181.597 41.9219 180.382 41.9219C179.476 41.9219 178.913 42.3281 178.632 42.9375H178.554V42H177.663V48H178.585V44.3906ZM187.176 48H192.223V47.1406H188.504V47.0781L190.301 45.1562C191.676 43.6836 192.082 42.9961 192.082 42.1094C192.082 40.875 191.082 39.8906 189.676 39.8906C188.273 39.8906 187.207 40.8437 187.207 42.25H188.129C188.129 41.3398 188.719 40.7344 189.645 40.7344C190.512 40.7344 191.176 41.2656 191.176 42.1094C191.176 42.8477 190.742 43.3945 189.816 44.4062L187.176 47.2969V48ZM195.227 46.9062H194.227L194.18 47.3437C194.066 48.4023 193.844 49.457 193.742 49.9531H194.445C194.633 49.4219 195.031 48.2187 195.164 47.3281L195.227 46.9062ZM199.419 48.1094C200.942 48.1094 202.06 46.9844 202.06 45.4531C202.06 43.9023 200.981 42.7656 199.513 42.7656C198.974 42.7656 198.45 42.957 198.122 43.2187H198.075L198.356 40.8594H201.7V40H197.544L197.06 43.9375L197.966 44.0469C198.298 43.8086 198.864 43.6367 199.356 43.6406C200.376 43.6484 201.122 44.4219 201.122 45.4687C201.122 46.4961 200.403 47.25 199.419 47.25C198.599 47.25 197.946 46.7227 197.872 46H196.935C196.993 47.2188 198.044 48.1094 199.419 48.1094ZM206.221 48.1094C207.986 48.1094 209.002 46.6133 209.002 44C209.002 41.4063 207.971 39.8906 206.221 39.8906C204.471 39.8906 203.439 41.4063 203.439 44C203.439 46.6133 204.455 48.1094 206.221 48.1094ZM206.221 47.25C205.057 47.25 204.377 46.082 204.377 44C204.377 41.9219 205.064 40.7344 206.221 40.7344C207.377 40.7344 208.064 41.9219 208.064 44C208.064 46.082 207.385 47.25 206.221 47.25ZM213.096 48.1094C214.861 48.1094 215.877 46.6133 215.877 44C215.877 41.4063 214.846 39.8906 213.096 39.8906C211.346 39.8906 210.314 41.4063 210.314 44C210.314 46.6133 211.33 48.1094 213.096 48.1094ZM213.096 47.25C211.932 47.25 211.252 46.082 211.252 44C211.252 41.9219 211.939 40.7344 213.096 40.7344C214.252 40.7344 214.939 41.9219 214.939 44C214.939 46.082 214.26 47.25 213.096 47.25ZM58.8438 67.25H59.7656V64.0781H59.8438C60.0469 64.4062 60.4375 65.125 61.5938 65.125C63.0938 65.125 64.1406 63.9219 64.1406 62.0156C64.1406 60.125 63.0938 58.9219 61.5781 58.9219C60.4062 58.9219 60.0469 59.6406 59.8438 59.9531H59.7344V59H58.8438V67.25ZM59.75 62C59.75 60.6562 60.3438 59.75 61.4687 59.75C62.6406 59.75 63.2188 60.7344 63.2188 62C63.2188 63.2812 62.625 64.2969 61.4687 64.2969C60.3594 64.2969 59.75 63.3594 59.75 62ZM68.0625 65.125C69.2813 65.125 70.1719 64.5156 70.4531 63.6094L69.5625 63.3594C69.3281 63.9844 68.7852 64.2969 68.0625 64.2969C66.9805 64.2969 66.2344 63.5977 66.1914 62.3125H70.5469V61.9219C70.5469 59.6875 69.2188 58.9219 67.9688 58.9219C66.3438 58.9219 65.2656 60.2031 65.2656 62.0469C65.2656 63.8906 66.3281 65.125 68.0625 65.125ZM66.1914 61.5156C66.2539 60.582 66.9141 59.75 67.9688 59.75C68.9688 59.75 69.6094 60.5 69.6094 61.5156H66.1914ZM74.5586 59H73.2773V57.5625H72.3555V59H71.4492V59.7812H72.3555V63.5312C72.3555 64.5781 73.1992 65.0781 73.9805 65.0781C74.3242 65.0781 74.543 65.0156 74.668 64.9687L74.4805 64.1406C74.4023 64.1562 74.2773 64.1875 74.0742 64.1875C73.668 64.1875 73.2773 64.0625 73.2773 63.2812V59.7812H74.5586V59ZM75.9453 65H76.8672V61.2031C76.8672 60.3945 77.5078 59.7969 78.3828 59.7969C78.6133 59.7969 78.7852 59.8398 78.9141 59.9062L79.2266 59.125C79.0391 58.9922 78.793 58.9062 78.4609 58.9062C77.7344 58.9062 77.1133 59.3125 76.8984 59.9062H76.8359V59H75.9453V65ZM82.4219 65.125C84.0469 65.125 85.1406 63.8906 85.1406 62.0312C85.1406 60.1562 84.0469 58.9219 82.4219 58.9219C80.7969 58.9219 79.7031 60.1562 79.7031 62.0312C79.7031 63.8906 80.7969 65.125 82.4219 65.125ZM82.4219 64.2969C81.1875 64.2969 80.625 63.2344 80.625 62.0312C80.625 60.8281 81.1875 59.75 82.4219 59.75C83.6563 59.75 84.2188 60.8281 84.2188 62.0312C84.2188 63.2344 83.6563 64.2969 82.4219 64.2969ZM87.4697 57H86.5479V65H87.4697V57ZM96.502 60.3437C96.2129 59.4922 95.5645 58.9219 94.377 58.9219C93.1113 58.9219 92.1738 59.6406 92.1738 60.6562C92.1738 61.4844 92.666 62.0391 93.7676 62.2969L94.7676 62.5312C95.373 62.6719 95.6582 62.9609 95.6582 63.375C95.6582 63.8906 95.1113 64.3125 94.252 64.3125C93.498 64.3125 93.0254 63.9883 92.8613 63.3437L91.9863 63.5625C92.2012 64.582 93.041 65.125 94.2676 65.125C95.6621 65.125 96.6113 64.3633 96.6113 63.3281C96.6113 62.4922 96.0879 61.9648 95.0176 61.7031L94.127 61.4844C93.416 61.3086 93.0957 61.0703 93.0957 60.6094C93.0957 60.0937 93.6426 59.7187 94.377 59.7187C95.1816 59.7187 95.5137 60.1641 95.6738 60.5781L96.502 60.3437ZM100.608 59H99.3271V57.5625H98.4053V59H97.499V59.7812H98.4053V63.5312C98.4053 64.5781 99.249 65.0781 100.03 65.0781C100.374 65.0781 100.593 65.0156 100.718 64.9687L100.53 64.1406C100.452 64.1562 100.327 64.1875 100.124 64.1875C99.7178 64.1875 99.3271 64.0625 99.3271 63.2812V59.7812H100.608V59ZM103.761 65.1406C104.808 65.1406 105.354 64.5781 105.542 64.1875H105.589V65H106.511V61.0469C106.511 59.1406 105.058 58.9219 104.292 58.9219C103.386 58.9219 102.354 59.2344 101.886 60.3281L102.761 60.6406C102.964 60.2031 103.444 59.7344 104.323 59.7344C105.171 59.7344 105.589 60.1836 105.589 60.9531V60.9844C105.589 61.4297 105.136 61.3906 104.042 61.5313C102.929 61.6758 101.714 61.9219 101.714 63.2969C101.714 64.4687 102.62 65.1406 103.761 65.1406ZM103.901 64.3125C103.167 64.3125 102.636 63.9844 102.636 63.3437C102.636 62.6406 103.276 62.4219 103.995 62.3281C104.386 62.2812 105.433 62.1719 105.589 61.9844V62.8281C105.589 63.5781 104.995 64.3125 103.901 64.3125ZM110.803 59H109.521V57.5625H108.6V59H107.693V59.7812H108.6V63.5312C108.6 64.5781 109.443 65.0781 110.225 65.0781C110.568 65.0781 110.787 65.0156 110.912 64.9687L110.725 64.1406C110.646 64.1562 110.521 64.1875 110.318 64.1875C109.912 64.1875 109.521 64.0625 109.521 63.2812V59.7812H110.803V59ZM112.189 65H113.111V59H112.189V65ZM112.658 58C113.018 58 113.314 57.7188 113.314 57.375C113.314 57.0313 113.018 56.75 112.658 56.75C112.299 56.75 112.002 57.0313 112.002 57.375C112.002 57.7188 112.299 58 112.658 58ZM117.237 65.125C118.862 65.125 119.956 63.8906 119.956 62.0312C119.956 60.1562 118.862 58.9219 117.237 58.9219C115.612 58.9219 114.519 60.1562 114.519 62.0312C114.519 63.8906 115.612 65.125 117.237 65.125ZM117.237 64.2969C116.003 64.2969 115.44 63.2344 115.44 62.0312C115.44 60.8281 116.003 59.75 117.237 59.75C118.472 59.75 119.034 60.8281 119.034 62.0312C119.034 63.2344 118.472 64.2969 117.237 64.2969ZM122.285 61.3906C122.285 60.3437 122.934 59.75 123.816 59.75C124.672 59.75 125.191 60.3086 125.191 61.25V65H126.113V61.1875C126.113 59.6562 125.297 58.9219 124.082 58.9219C123.176 58.9219 122.613 59.3281 122.332 59.9375H122.254V59H121.363V65H122.285V61.3906ZM132.048 60.3437C131.759 59.4922 131.11 58.9219 129.923 58.9219C128.657 58.9219 127.72 59.6406 127.72 60.6562C127.72 61.4844 128.212 62.0391 129.313 62.2969L130.313 62.5312C130.919 62.6719 131.204 62.9609 131.204 63.375C131.204 63.8906 130.657 64.3125 129.798 64.3125C129.044 64.3125 128.571 63.9883 128.407 63.3437L127.532 63.5625C127.747 64.582 128.587 65.125 129.813 65.125C131.208 65.125 132.157 64.3633 132.157 63.3281C132.157 62.4922 131.634 61.9648 130.563 61.7031L129.673 61.4844C128.962 61.3086 128.642 61.0703 128.642 60.6094C128.642 60.0937 129.188 59.7187 129.923 59.7187C130.728 59.7187 131.06 60.1641 131.22 60.5781L132.048 60.3437ZM139.061 67.375C140.498 67.375 141.654 66.7188 141.654 65.1719V59H140.764V59.9531H140.67C140.467 59.6406 140.092 58.9219 138.92 58.9219C137.404 58.9219 136.357 60.125 136.357 61.9687C136.357 63.8437 137.451 64.9062 138.904 64.9062C140.076 64.9062 140.451 64.2188 140.654 63.8906H140.732V65.1094C140.732 66.1094 140.029 66.5625 139.061 66.5625C137.971 66.5625 137.588 65.9883 137.342 65.6563L136.607 66.1719C136.982 66.8008 137.721 67.375 139.061 67.375ZM139.029 64.0781C137.873 64.0781 137.279 63.2031 137.279 61.9531C137.279 60.7344 137.857 59.75 139.029 59.75C140.154 59.75 140.748 60.6562 140.748 61.9531C140.748 63.2812 140.139 64.0781 139.029 64.0781ZM144.264 57H143.342V65H144.264V57ZM148.39 65.125C150.015 65.125 151.108 63.8906 151.108 62.0312C151.108 60.1562 150.015 58.9219 148.39 58.9219C146.765 58.9219 145.671 60.1562 145.671 62.0312C145.671 63.8906 146.765 65.125 148.39 65.125ZM148.39 64.2969C147.155 64.2969 146.593 63.2344 146.593 62.0312C146.593 60.8281 147.155 59.75 148.39 59.75C149.624 59.75 150.187 60.8281 150.187 62.0312C150.187 63.2344 149.624 64.2969 148.39 64.2969ZM152.641 65H153.531V64.0781H153.641C153.844 64.4062 154.234 65.125 155.391 65.125C156.891 65.125 157.938 63.9219 157.938 62.0156C157.938 60.125 156.891 58.9219 155.375 58.9219C154.203 58.9219 153.844 59.6406 153.641 59.9531H153.562V57H152.641V65ZM153.547 62C153.547 60.6562 154.141 59.75 155.266 59.75C156.438 59.75 157.016 60.7344 157.016 62C157.016 63.2812 156.422 64.2969 155.266 64.2969C154.156 64.2969 153.547 63.3594 153.547 62ZM161.113 65.1406C162.16 65.1406 162.707 64.5781 162.895 64.1875H162.941V65H163.863V61.0469C163.863 59.1406 162.41 58.9219 161.645 58.9219C160.738 58.9219 159.707 59.2344 159.238 60.3281L160.113 60.6406C160.316 60.2031 160.797 59.7344 161.676 59.7344C162.523 59.7344 162.941 60.1836 162.941 60.9531V60.9844C162.941 61.4297 162.488 61.3906 161.395 61.5313C160.281 61.6758 159.066 61.9219 159.066 63.2969C159.066 64.4687 159.973 65.1406 161.113 65.1406ZM161.254 64.3125C160.52 64.3125 159.988 63.9844 159.988 63.3437C159.988 62.6406 160.629 62.4219 161.348 62.3281C161.738 62.2812 162.785 62.1719 162.941 61.9844V62.8281C162.941 63.5781 162.348 64.3125 161.254 64.3125ZM166.468 57H165.546V65H166.468V57ZM169.078 57H168.156V65H169.078V57ZM171.329 67.3281C172.173 67.3281 172.751 66.8906 173.095 65.9688L175.673 59H174.673L173.017 63.7812H172.954L171.298 59H170.298L172.517 65.0313L172.313 65.5938C171.989 66.4922 171.563 66.5781 170.892 66.4062L170.657 67.2188C170.751 67.2656 171.017 67.3281 171.329 67.3281Z" fill="#9DA8B6"/>
<path d="M31 55.4324C31 58.1905 28.7565 60.432 26 60.432C23.2435 60.432 21 58.1897 21 55.4324C21 53.0389 24.4941 47.5205 25.1953 46.4383C25.3718 46.165 25.675 46 26.0008 46C26.3266 46 26.6294 46.165 26.8063 46.4383C27.5059 47.5205 31 53.0389 31 55.4324Z" fill="#FF7616"/>
<g filter="url(#filter1_d_1949_94)">
<rect x="99" y="300" width="221" height="45" rx="5" fill="white"/>
</g>
<path d="M99 305C99 302.239 101.239 300 104 300H144V345H104C101.239 345 99 342.761 99 340V305Z" fill="#FBFBFB"/>
<line x1="144.5" y1="300" x2="144.5" y2="345" stroke="#F0F0F0"/>
<path d="M161.344 312H162.281C162.238 310.793 161.125 309.891 159.578 309.891C158.047 309.891 156.844 310.781 156.844 312.125C156.844 313.203 157.625 313.844 158.875 314.203L159.859 314.484C160.703 314.719 161.453 315.016 161.453 315.812C161.453 316.687 160.609 317.266 159.5 317.266C158.547 317.266 157.703 316.844 157.625 315.938H156.625C156.719 317.25 157.781 318.141 159.5 318.141C161.344 318.141 162.391 317.125 162.391 315.828C162.391 314.328 160.969 313.844 160.141 313.625L159.328 313.406C158.734 313.25 157.781 312.937 157.781 312.078C157.781 311.312 158.484 310.75 159.547 310.75C160.516 310.75 161.25 311.211 161.344 312ZM164.421 320.328C165.265 320.328 165.843 319.891 166.187 318.969L168.765 312H167.765L166.108 316.781H166.046L164.39 312H163.39L165.608 318.031L165.405 318.594C165.081 319.492 164.655 319.578 163.983 319.406L163.749 320.219C163.843 320.266 164.108 320.328 164.421 320.328ZM172.204 318.125C173.829 318.125 174.923 316.891 174.923 315.031C174.923 313.156 173.829 311.922 172.204 311.922C170.579 311.922 169.485 313.156 169.485 315.031C169.485 316.891 170.579 318.125 172.204 318.125ZM172.204 317.297C170.97 317.297 170.407 316.234 170.407 315.031C170.407 313.828 170.97 312.75 172.204 312.75C173.438 312.75 174.001 313.828 174.001 315.031C174.001 316.234 173.438 317.297 172.204 317.297ZM178.096 318.141C179.143 318.141 179.689 317.578 179.877 317.187H179.924V318H180.846V314.047C180.846 312.141 179.393 311.922 178.627 311.922C177.721 311.922 176.689 312.234 176.221 313.328L177.096 313.641C177.299 313.203 177.779 312.734 178.658 312.734C179.506 312.734 179.924 313.184 179.924 313.953V313.984C179.924 314.43 179.471 314.391 178.377 314.531C177.264 314.676 176.049 314.922 176.049 316.297C176.049 317.469 176.955 318.141 178.096 318.141ZM178.236 317.312C177.502 317.312 176.971 316.984 176.971 316.344C176.971 315.641 177.611 315.422 178.33 315.328C178.721 315.281 179.768 315.172 179.924 314.984V315.828C179.924 316.578 179.33 317.312 178.236 317.312ZM182.528 318H183.45V315.754L184.095 315.156L186.341 318H187.513L184.79 314.562L187.325 312H186.185L183.56 314.672H183.45V310H182.528V318ZM195.855 313.344C195.566 312.492 194.918 311.922 193.73 311.922C192.465 311.922 191.527 312.641 191.527 313.656C191.527 314.484 192.02 315.039 193.121 315.297L194.121 315.531C194.727 315.672 195.012 315.961 195.012 316.375C195.012 316.891 194.465 317.312 193.605 317.312C192.852 317.312 192.379 316.988 192.215 316.344L191.34 316.562C191.555 317.582 192.395 318.125 193.621 318.125C195.016 318.125 195.965 317.363 195.965 316.328C195.965 315.492 195.441 314.965 194.371 314.703L193.48 314.484C192.77 314.309 192.449 314.07 192.449 313.609C192.449 313.094 192.996 312.719 193.73 312.719C194.535 312.719 194.867 313.164 195.027 313.578L195.855 313.344ZM199.868 318.125C201.087 318.125 201.978 317.516 202.259 316.609L201.368 316.359C201.134 316.984 200.591 317.297 199.868 317.297C198.786 317.297 198.04 316.598 197.997 315.312H202.353V314.922C202.353 312.687 201.024 311.922 199.774 311.922C198.149 311.922 197.071 313.203 197.071 315.047C197.071 316.891 198.134 318.125 199.868 318.125ZM197.997 314.516C198.06 313.582 198.72 312.75 199.774 312.75C200.774 312.75 201.415 313.5 201.415 314.516H197.997ZM203.755 318H204.677V314.203C204.677 313.391 205.317 312.797 206.192 312.797C206.438 312.797 206.692 312.844 206.755 312.859V311.922C206.649 311.914 206.407 311.906 206.271 311.906C205.552 311.906 204.927 312.312 204.708 312.906H204.646V312H203.755V318ZM212.937 312H211.937L210.28 316.781H210.218L208.562 312H207.562L209.78 318H210.718L212.937 312ZM216.454 318.125C217.673 318.125 218.563 317.516 218.845 316.609L217.954 316.359C217.72 316.984 217.177 317.297 216.454 317.297C215.372 317.297 214.626 316.598 214.583 315.312H218.938V314.922C218.938 312.687 217.61 311.922 216.36 311.922C214.735 311.922 213.657 313.203 213.657 315.047C213.657 316.891 214.72 318.125 216.454 318.125ZM214.583 314.516C214.646 313.582 215.306 312.75 216.36 312.75C217.36 312.75 218.001 313.5 218.001 314.516H214.583ZM224.591 313.344C224.302 312.492 223.653 311.922 222.466 311.922C221.2 311.922 220.263 312.641 220.263 313.656C220.263 314.484 220.755 315.039 221.856 315.297L222.856 315.531C223.462 315.672 223.747 315.961 223.747 316.375C223.747 316.891 223.2 317.312 222.341 317.312C221.587 317.312 221.114 316.988 220.95 316.344L220.075 316.562C220.29 317.582 221.13 318.125 222.356 318.125C223.751 318.125 224.7 317.363 224.7 316.328C224.7 315.492 224.177 314.965 223.106 314.703L222.216 314.484C221.505 314.309 221.185 314.07 221.185 313.609C221.185 313.094 221.731 312.719 222.466 312.719C223.271 312.719 223.603 313.164 223.763 313.578L224.591 313.344ZM229.182 318H230.104V314.25C230.104 313.371 230.744 312.75 231.463 312.75C232.162 312.75 232.65 313.207 232.65 313.891V318H233.588V314.094C233.588 313.32 234.072 312.75 234.916 312.75C235.572 312.75 236.135 313.098 236.135 313.984V318H237.057V313.984C237.057 312.574 236.299 311.922 235.229 311.922C234.369 311.922 233.74 312.316 233.432 312.937H233.369C233.072 312.297 232.549 311.922 231.76 311.922C230.979 311.922 230.4 312.297 230.15 312.937H230.072V312H229.182V318ZM241.18 318.125C242.805 318.125 243.898 316.891 243.898 315.031C243.898 313.156 242.805 311.922 241.18 311.922C239.555 311.922 238.461 313.156 238.461 315.031C238.461 316.891 239.555 318.125 241.18 318.125ZM241.18 317.297C239.945 317.297 239.383 316.234 239.383 315.031C239.383 313.828 239.945 312.75 241.18 312.75C242.414 312.75 242.977 313.828 242.977 315.031C242.977 316.234 242.414 317.297 241.18 317.297ZM245.306 318H246.228V314.203C246.228 313.395 246.868 312.797 247.743 312.797C247.974 312.797 248.146 312.84 248.274 312.906L248.587 312.125C248.399 311.992 248.153 311.906 247.821 311.906C247.095 311.906 246.474 312.312 246.259 312.906H246.196V312H245.306V318ZM251.86 318.125C253.079 318.125 253.97 317.516 254.251 316.609L253.36 316.359C253.126 316.984 252.583 317.297 251.86 317.297C250.778 317.297 250.032 316.598 249.989 315.312H254.345V314.922C254.345 312.687 253.017 311.922 251.767 311.922C250.142 311.922 249.063 313.203 249.063 315.047C249.063 316.891 250.126 318.125 251.86 318.125ZM249.989 314.516C250.052 313.582 250.712 312.75 251.767 312.75C252.767 312.75 253.407 313.5 253.407 314.516H249.989ZM261.45 312H260.169V310.562H259.247V312H258.341V312.781H259.247V316.531C259.247 317.578 260.091 318.078 260.872 318.078C261.216 318.078 261.435 318.016 261.56 317.969L261.372 317.141C261.294 317.156 261.169 317.187 260.966 317.187C260.56 317.187 260.169 317.062 260.169 316.281V312.781H261.45V312ZM263.888 314.391C263.888 313.344 264.556 312.75 265.466 312.75C266.333 312.75 266.856 313.297 266.856 314.25V318H267.778V314.188C267.778 312.645 266.958 311.922 265.731 311.922C264.786 311.922 264.247 312.316 263.966 312.937H263.888V310H262.966V318H263.888V314.391ZM271.23 318.141C272.277 318.141 272.824 317.578 273.012 317.187H273.059V318H273.98V314.047C273.98 312.141 272.527 311.922 271.762 311.922C270.855 311.922 269.824 312.234 269.355 313.328L270.23 313.641C270.434 313.203 270.914 312.734 271.793 312.734C272.641 312.734 273.059 313.184 273.059 313.953V313.984C273.059 314.43 272.605 314.391 271.512 314.531C270.398 314.676 269.184 314.922 269.184 316.297C269.184 317.469 270.09 318.141 271.23 318.141ZM271.371 317.312C270.637 317.312 270.105 316.984 270.105 316.344C270.105 315.641 270.746 315.422 271.465 315.328C271.855 315.281 272.902 315.172 273.059 314.984V315.828C273.059 316.578 272.465 317.312 271.371 317.312ZM276.585 314.391C276.585 313.344 277.233 312.75 278.116 312.75C278.972 312.75 279.491 313.309 279.491 314.25V318H280.413V314.188C280.413 312.656 279.597 311.922 278.382 311.922C277.476 311.922 276.913 312.328 276.632 312.937H276.554V312H275.663V318H276.585V314.391ZM285.176 318H290.223V317.141H286.504V317.078L288.301 315.156C289.676 313.684 290.082 312.996 290.082 312.109C290.082 310.875 289.082 309.891 287.676 309.891C286.273 309.891 285.207 310.844 285.207 312.25H286.129C286.129 311.34 286.719 310.734 287.645 310.734C288.512 310.734 289.176 311.266 289.176 312.109C289.176 312.848 288.742 313.395 287.816 314.406L285.176 317.297V318ZM293.227 316.906H292.227L292.18 317.344C292.066 318.402 291.844 319.457 291.742 319.953H292.445C292.633 319.422 293.031 318.219 293.164 317.328L293.227 316.906ZM297.419 318.109C298.942 318.109 300.06 316.984 300.06 315.453C300.06 313.902 298.981 312.766 297.513 312.766C296.974 312.766 296.45 312.957 296.122 313.219H296.075L296.356 310.859H299.7V310H295.544L295.06 313.937L295.966 314.047C296.298 313.809 296.864 313.637 297.356 313.641C298.376 313.648 299.122 314.422 299.122 315.469C299.122 316.496 298.403 317.25 297.419 317.25C296.599 317.25 295.946 316.723 295.872 316H294.935C294.993 317.219 296.044 318.109 297.419 318.109ZM304.221 318.109C305.986 318.109 307.002 316.613 307.002 314C307.002 311.406 305.971 309.891 304.221 309.891C302.471 309.891 301.439 311.406 301.439 314C301.439 316.613 302.455 318.109 304.221 318.109ZM304.221 317.25C303.057 317.25 302.377 316.082 302.377 314C302.377 311.922 303.064 310.734 304.221 310.734C305.377 310.734 306.064 311.922 306.064 314C306.064 316.082 305.385 317.25 304.221 317.25ZM311.096 318.109C312.861 318.109 313.877 316.613 313.877 314C313.877 311.406 312.846 309.891 311.096 309.891C309.346 309.891 308.314 311.406 308.314 314C308.314 316.613 309.33 318.109 311.096 318.109ZM311.096 317.25C309.932 317.25 309.252 316.082 309.252 314C309.252 311.922 309.939 310.734 311.096 310.734C312.252 310.734 312.939 311.922 312.939 314C312.939 316.082 312.26 317.25 311.096 317.25ZM156.844 337.25H157.766V334.078H157.844C158.047 334.406 158.438 335.125 159.594 335.125C161.094 335.125 162.141 333.922 162.141 332.016C162.141 330.125 161.094 328.922 159.578 328.922C158.406 328.922 158.047 329.641 157.844 329.953H157.734V329H156.844V337.25ZM157.75 332C157.75 330.656 158.344 329.75 159.469 329.75C160.641 329.75 161.219 330.734 161.219 332C161.219 333.281 160.625 334.297 159.469 334.297C158.359 334.297 157.75 333.359 157.75 332ZM166.063 335.125C167.281 335.125 168.172 334.516 168.453 333.609L167.563 333.359C167.328 333.984 166.785 334.297 166.063 334.297C164.98 334.297 164.234 333.598 164.191 332.312H168.547V331.922C168.547 329.687 167.219 328.922 165.969 328.922C164.344 328.922 163.266 330.203 163.266 332.047C163.266 333.891 164.328 335.125 166.063 335.125ZM164.191 331.516C164.254 330.582 164.914 329.75 165.969 329.75C166.969 329.75 167.609 330.5 167.609 331.516H164.191ZM172.559 329H171.277V327.562H170.355V329H169.449V329.781H170.355V333.531C170.355 334.578 171.199 335.078 171.98 335.078C172.324 335.078 172.543 335.016 172.668 334.969L172.48 334.141C172.402 334.156 172.277 334.187 172.074 334.187C171.668 334.187 171.277 334.062 171.277 333.281V329.781H172.559V329ZM173.945 335H174.867V331.203C174.867 330.395 175.508 329.797 176.383 329.797C176.613 329.797 176.785 329.84 176.914 329.906L177.227 329.125C177.039 328.992 176.793 328.906 176.461 328.906C175.734 328.906 175.113 329.312 174.898 329.906H174.836V329H173.945V335ZM180.422 335.125C182.047 335.125 183.141 333.891 183.141 332.031C183.141 330.156 182.047 328.922 180.422 328.922C178.797 328.922 177.703 330.156 177.703 332.031C177.703 333.891 178.797 335.125 180.422 335.125ZM180.422 334.297C179.188 334.297 178.625 333.234 178.625 332.031C178.625 330.828 179.188 329.75 180.422 329.75C181.656 329.75 182.219 330.828 182.219 332.031C182.219 333.234 181.656 334.297 180.422 334.297ZM185.47 327H184.548V335H185.47V327ZM194.502 330.344C194.213 329.492 193.564 328.922 192.377 328.922C191.111 328.922 190.174 329.641 190.174 330.656C190.174 331.484 190.666 332.039 191.768 332.297L192.768 332.531C193.373 332.672 193.658 332.961 193.658 333.375C193.658 333.891 193.111 334.312 192.252 334.312C191.498 334.312 191.025 333.988 190.861 333.344L189.986 333.562C190.201 334.582 191.041 335.125 192.268 335.125C193.662 335.125 194.611 334.363 194.611 333.328C194.611 332.492 194.088 331.965 193.018 331.703L192.127 331.484C191.416 331.309 191.096 331.07 191.096 330.609C191.096 330.094 191.643 329.719 192.377 329.719C193.182 329.719 193.514 330.164 193.674 330.578L194.502 330.344ZM198.608 329H197.327V327.562H196.405V329H195.499V329.781H196.405V333.531C196.405 334.578 197.249 335.078 198.03 335.078C198.374 335.078 198.593 335.016 198.718 334.969L198.53 334.141C198.452 334.156 198.327 334.187 198.124 334.187C197.718 334.187 197.327 334.062 197.327 333.281V329.781H198.608V329ZM201.761 335.141C202.808 335.141 203.354 334.578 203.542 334.187H203.589V335H204.511V331.047C204.511 329.141 203.058 328.922 202.292 328.922C201.386 328.922 200.354 329.234 199.886 330.328L200.761 330.641C200.964 330.203 201.444 329.734 202.323 329.734C203.171 329.734 203.589 330.184 203.589 330.953V330.984C203.589 331.43 203.136 331.391 202.042 331.531C200.929 331.676 199.714 331.922 199.714 333.297C199.714 334.469 200.62 335.141 201.761 335.141ZM201.901 334.312C201.167 334.312 200.636 333.984 200.636 333.344C200.636 332.641 201.276 332.422 201.995 332.328C202.386 332.281 203.433 332.172 203.589 331.984V332.828C203.589 333.578 202.995 334.312 201.901 334.312ZM208.803 329H207.521V327.562H206.6V329H205.693V329.781H206.6V333.531C206.6 334.578 207.443 335.078 208.225 335.078C208.568 335.078 208.787 335.016 208.912 334.969L208.725 334.141C208.646 334.156 208.521 334.187 208.318 334.187C207.912 334.187 207.521 334.062 207.521 333.281V329.781H208.803V329ZM210.189 335H211.111V329H210.189V335ZM210.658 328C211.018 328 211.314 327.719 211.314 327.375C211.314 327.031 211.018 326.75 210.658 326.75C210.299 326.75 210.002 327.031 210.002 327.375C210.002 327.719 210.299 328 210.658 328ZM215.237 335.125C216.862 335.125 217.956 333.891 217.956 332.031C217.956 330.156 216.862 328.922 215.237 328.922C213.612 328.922 212.519 330.156 212.519 332.031C212.519 333.891 213.612 335.125 215.237 335.125ZM215.237 334.297C214.003 334.297 213.44 333.234 213.44 332.031C213.44 330.828 214.003 329.75 215.237 329.75C216.472 329.75 217.034 330.828 217.034 332.031C217.034 333.234 216.472 334.297 215.237 334.297ZM220.285 331.391C220.285 330.344 220.934 329.75 221.816 329.75C222.672 329.75 223.191 330.309 223.191 331.25V335H224.113V331.188C224.113 329.656 223.297 328.922 222.082 328.922C221.176 328.922 220.613 329.328 220.332 329.937H220.254V329H219.363V335H220.285V331.391ZM230.048 330.344C229.759 329.492 229.11 328.922 227.923 328.922C226.657 328.922 225.72 329.641 225.72 330.656C225.72 331.484 226.212 332.039 227.313 332.297L228.313 332.531C228.919 332.672 229.204 332.961 229.204 333.375C229.204 333.891 228.657 334.312 227.798 334.312C227.044 334.312 226.571 333.988 226.407 333.344L225.532 333.562C225.747 334.582 226.587 335.125 227.813 335.125C229.208 335.125 230.157 334.363 230.157 333.328C230.157 332.492 229.634 331.965 228.563 331.703L227.673 331.484C226.962 331.309 226.642 331.07 226.642 330.609C226.642 330.094 227.188 329.719 227.923 329.719C228.728 329.719 229.06 330.164 229.22 330.578L230.048 330.344ZM237.061 337.375C238.498 337.375 239.654 336.719 239.654 335.172V329H238.764V329.953H238.67C238.467 329.641 238.092 328.922 236.92 328.922C235.404 328.922 234.357 330.125 234.357 331.969C234.357 333.844 235.451 334.906 236.904 334.906C238.076 334.906 238.451 334.219 238.654 333.891H238.732V335.109C238.732 336.109 238.029 336.562 237.061 336.562C235.971 336.562 235.588 335.988 235.342 335.656L234.607 336.172C234.982 336.801 235.721 337.375 237.061 337.375ZM237.029 334.078C235.873 334.078 235.279 333.203 235.279 331.953C235.279 330.734 235.857 329.75 237.029 329.75C238.154 329.75 238.748 330.656 238.748 331.953C238.748 333.281 238.139 334.078 237.029 334.078ZM242.264 327H241.342V335H242.264V327ZM246.39 335.125C248.015 335.125 249.108 333.891 249.108 332.031C249.108 330.156 248.015 328.922 246.39 328.922C244.765 328.922 243.671 330.156 243.671 332.031C243.671 333.891 244.765 335.125 246.39 335.125ZM246.39 334.297C245.155 334.297 244.593 333.234 244.593 332.031C244.593 330.828 245.155 329.75 246.39 329.75C247.624 329.75 248.187 330.828 248.187 332.031C248.187 333.234 247.624 334.297 246.39 334.297ZM250.641 335H251.531V334.078H251.641C251.844 334.406 252.234 335.125 253.391 335.125C254.891 335.125 255.938 333.922 255.938 332.016C255.938 330.125 254.891 328.922 253.375 328.922C252.203 328.922 251.844 329.641 251.641 329.953H251.562V327H250.641V335ZM251.547 332C251.547 330.656 252.141 329.75 253.266 329.75C254.438 329.75 255.016 330.734 255.016 332C255.016 333.281 254.422 334.297 253.266 334.297C252.156 334.297 251.547 333.359 251.547 332ZM259.113 335.141C260.16 335.141 260.707 334.578 260.895 334.187H260.941V335H261.863V331.047C261.863 329.141 260.41 328.922 259.645 328.922C258.738 328.922 257.707 329.234 257.238 330.328L258.113 330.641C258.316 330.203 258.797 329.734 259.676 329.734C260.523 329.734 260.941 330.184 260.941 330.953V330.984C260.941 331.43 260.488 331.391 259.395 331.531C258.281 331.676 257.066 331.922 257.066 333.297C257.066 334.469 257.973 335.141 259.113 335.141ZM259.254 334.312C258.52 334.312 257.988 333.984 257.988 333.344C257.988 332.641 258.629 332.422 259.348 332.328C259.738 332.281 260.785 332.172 260.941 331.984V332.828C260.941 333.578 260.348 334.312 259.254 334.312ZM264.468 327H263.546V335H264.468V327ZM267.078 327H266.156V335H267.078V327ZM269.329 337.328C270.173 337.328 270.751 336.891 271.095 335.969L273.673 329H272.673L271.017 333.781H270.954L269.298 329H268.298L270.517 335.031L270.313 335.594C269.989 336.492 269.563 336.578 268.892 336.406L268.657 337.219C268.751 337.266 269.017 337.328 269.329 337.328Z" fill="#9DA8B6"/>
<path d="M129 325.432C129 328.19 126.757 330.432 124 330.432C121.243 330.432 119 328.19 119 325.432C119 323.039 122.494 317.52 123.195 316.438C123.372 316.165 123.675 316 124.001 316C124.327 316 124.629 316.165 124.806 316.438C125.506 317.52 129 323.039 129 325.432Z" fill="#FF7616"/>
<defs>
<filter id="filter0_d_1949_94" x="0" y="30" width="229" height="56" filterUnits="userSpaceOnUse" color-interpolation-filters="sRGB">
<feFlood flood-opacity="0" result="BackgroundImageFix"/>
<feColorMatrix in="SourceAlpha" type="matrix" values="0 0 0 0 0 0 0 0 0 0 0 0 0 0 0 0 0 0 127 0" result="hardAlpha"/>
<feOffset dx="3" dy="7"/>
<feGaussianBlur stdDeviation="2"/>
<feColorMatrix type="matrix" values="0 0 0 0 0 0 0 0 0 0 0 0 0 0 0 0 0 0 0.09 0"/>
<feBlend mode="normal" in2="BackgroundImageFix" result="effect1_dropShadow_1949_94"/>
<feBlend mode="normal" in="SourceGraphic" in2="effect1_dropShadow_1949_94" result="shape"/>
</filter>
<filter id="filter1_d_1949_94" x="98" y="300" width="229" height="56" filterUnits="userSpaceOnUse" color-interpolation-filters="sRGB">
<feFlood flood-opacity="0" result="BackgroundImageFix"/>
<feColorMatrix in="SourceAlpha" type="matrix" values="0 0 0 0 0 0 0 0 0 0 0 0 0 0 0 0 0 0 127 0" result="hardAlpha"/>
<feOffset dx="3" dy="7"/>
<feGaussianBlur stdDeviation="2"/>
<feColorMatrix type="matrix" values="0 0 0 0 0 0 0 0 0 0 0 0 0 0 0 0 0 0 0.09 0"/>
<feBlend mode="normal" in2="BackgroundImageFix" result="effect1_dropShadow_1949_94"/>
<feBlend mode="normal" in="SourceGraphic" in2="effect1_dropShadow_1949_94" result="shape"/>
</filter>
<clipPath id="clip0_1949_94">
<rect width="300" height="358.163" fill="white" transform="translate(31)"/>
</clipPath>
</defs>
</svg>
