<svg width="20" height="20" viewBox="0 0 20 20" fill="none" xmlns="http://www.w3.org/2000/svg">
<path d="M19.8958 0.97019C20.087 0.682074 20.0077 0.295211 19.7195 0.103967C19.4308 -0.0866523 19.0446 -0.00790476 18.8533 0.280836L16.5415 3.7801C16.4453 3.76448 16.3496 3.7501 16.2496 3.7501C15.2172 3.7501 14.3747 4.59195 14.3747 5.62504C14.3747 5.82379 14.4141 6.01191 14.4716 6.1919L12.2391 9.03869C11.951 8.85869 11.6142 8.74995 11.2504 8.74995C10.2423 8.74995 9.42298 9.5518 9.38299 10.5499L5.85122 12.6067C5.50748 12.1655 4.97687 11.8748 4.37502 11.8748C3.3413 11.8748 2.50008 12.7167 2.50008 13.7498C2.50008 14.156 2.63382 14.531 2.85381 14.8385L0.10265 19.0315C-0.0867191 19.3209 -0.00672163 19.7077 0.282019 19.8971C0.387641 19.9665 0.507012 19.9996 0.624509 19.9996C0.828252 19.9996 1.02825 19.9008 1.14762 19.7177L3.88191 15.5516C4.04003 15.5941 4.2044 15.6247 4.37502 15.6247C5.38311 15.6247 6.20246 14.8241 6.24246 13.8242L9.77422 11.7686C10.1173 12.2105 10.6479 12.4998 11.2498 12.4998C12.2835 12.4998 13.1247 11.6586 13.1247 10.6249C13.1247 10.4268 13.086 10.238 13.0291 10.0587L15.2603 7.21249C15.5484 7.39186 15.8853 7.50061 16.249 7.50061C17.2821 7.50061 18.124 6.65939 18.124 5.62567C18.124 5.14631 17.9377 4.71382 17.6421 4.38196L19.8958 0.97019ZM4.37502 14.3748C4.03003 14.3748 3.75004 14.0954 3.75004 13.7498C3.75004 13.4054 4.03003 13.1248 4.37502 13.1248C4.72001 13.1248 5 13.4054 5 13.7498C5 14.0954 4.72001 14.3748 4.37502 14.3748ZM11.2498 11.2499C10.9048 11.2499 10.6248 10.9705 10.6248 10.6249C10.6248 10.2805 10.9048 9.99991 11.2498 9.99991C11.5948 9.99991 11.8748 10.2805 11.8748 10.6249C11.8748 10.9705 11.5948 11.2499 11.2498 11.2499ZM16.2496 6.25002C15.9047 6.25002 15.6247 5.97003 15.6247 5.62504C15.6247 5.28068 15.9047 5.00006 16.2496 5.00006C16.5946 5.00006 16.8746 5.28068 16.8746 5.62504C16.8746 5.97003 16.594 6.25002 16.2496 6.25002ZM3.75004 18.7496C3.40442 18.7496 3.12506 19.0302 3.12506 19.3746C3.12506 19.7202 3.40442 19.9996 3.75004 19.9996C4.09565 19.9996 4.37502 19.7202 4.37502 19.3746C4.37502 19.0302 4.09628 18.7496 3.75004 18.7496ZM6.87494 18.7496C6.52932 18.7496 6.24996 19.0302 6.24996 19.3746C6.24996 19.7202 6.52932 19.9996 6.87494 19.9996C7.22055 19.9996 7.49992 19.7202 7.49992 19.3746C7.49992 19.0302 7.22118 18.7496 6.87494 18.7496ZM9.99984 18.7496C9.65423 18.7496 9.37486 19.0302 9.37486 19.3746C9.37486 19.7202 9.65423 19.9996 9.99984 19.9996C10.3455 19.9996 10.6248 19.7202 10.6248 19.3746C10.6248 19.0302 10.3461 18.7496 9.99984 18.7496ZM13.1247 18.7496C12.7791 18.7496 12.4998 19.0302 12.4998 19.3746C12.4998 19.7202 12.7791 19.9996 13.1247 19.9996C13.471 19.9996 13.7497 19.7202 13.7497 19.3746C13.7497 19.0302 13.471 18.7496 13.1247 18.7496ZM16.2496 18.7496C15.904 18.7496 15.6247 19.0302 15.6247 19.3746C15.6247 19.7202 15.904 19.9996 16.2496 19.9996C16.5959 19.9996 16.8746 19.7202 16.8746 19.3746C16.8746 19.0302 16.5959 18.7496 16.2496 18.7496ZM19.3745 18.7496C19.0289 18.7496 18.7496 19.0302 18.7496 19.3746C18.7496 19.7202 19.0289 19.9996 19.3745 19.9996C19.7208 19.9996 19.9995 19.7202 19.9995 19.3746C19.9995 19.0302 19.7208 18.7496 19.3745 18.7496ZM0.625134 16.8747C0.970748 16.8747 1.25011 16.5953 1.25011 16.2497C1.25011 15.9053 0.970748 15.6247 0.625134 15.6247C0.279519 15.6247 0.000153167 15.9053 0.000153167 16.2497C0.000153167 16.5953 0.279519 16.8747 0.625134 16.8747ZM0.625134 13.7498C0.970748 13.7498 1.25011 13.4704 1.25011 13.1248C1.25011 12.7804 0.970748 12.4998 0.625134 12.4998C0.279519 12.4998 0.000153167 12.7804 0.000153167 13.1248C0.000153167 13.4704 0.279519 13.7498 0.625134 13.7498ZM0.625134 10.6249C0.970748 10.6249 1.25011 10.3455 1.25011 9.99991C1.25011 9.65554 0.970748 9.37493 0.625134 9.37493C0.279519 9.37493 0.000153167 9.65492 0.000153167 9.99991C0.000153167 10.3455 0.279519 10.6249 0.625134 10.6249ZM0.625134 7.49999C0.970748 7.49999 1.25011 7.22124 1.25011 6.87501C1.25011 6.53002 0.970748 6.25002 0.625134 6.25002C0.279519 6.25002 0.000153167 6.53002 0.000153167 6.87501C0.000153167 7.22187 0.279519 7.49999 0.625134 7.49999ZM0.625134 4.37508C0.970748 4.37508 1.25011 4.09634 1.25011 3.7501C1.25011 3.40511 0.970748 3.12512 0.625134 3.12512C0.279519 3.12512 0.000153167 3.40511 0.000153167 3.7501C0.000153167 4.09697 0.279519 4.37508 0.625134 4.37508ZM0.625134 1.25018C0.970748 1.25018 1.25011 0.97144 1.25011 0.6252C1.25011 0.280211 0.970748 0.000219995 0.625134 0.000219995C0.279519 0.000219995 0.000153167 0.280211 0.000153167 0.6252C0.000153167 0.972065 0.279519 1.25018 0.625134 1.25018Z" fill="#B7BACF"/>
</svg>
