<svg width="20" height="16" viewBox="0 0 20 16" fill="none" xmlns="http://www.w3.org/2000/svg">
<path d="M16.9978 3.00226C16.7323 2.73683 16.3156 2.69769 16.0053 2.90913C14.8363 3.70593 8.97288 7.71261 8.34272 8.34273C7.42889 9.25659 7.42889 10.7435 8.34272 11.6573C8.79963 12.1142 9.39987 12.3427 10 12.3427C10.6002 12.3427 11.2004 12.1142 11.6573 11.6573C12.2874 11.0272 16.2941 5.16374 17.0909 3.99476C17.3023 3.68449 17.2632 3.26777 16.9978 3.00226ZM10.5524 10.5525C10.2478 10.8571 9.75217 10.8571 9.4476 10.5525C9.14299 10.2479 9.14295 9.75238 9.44745 9.44777C9.69229 9.20581 11.357 8.01855 13.4052 6.59484C11.9815 8.64304 10.7943 10.3077 10.5524 10.5525Z" fill="white"/>
<path d="M3.60277 13.6338L2.63832 14.1042C1.93262 12.8448 1.5625 11.439 1.5625 10C1.5625 8.94566 1.75691 7.93586 2.11172 7.00457L3.21684 7.53465C3.32582 7.58691 3.44086 7.61168 3.55418 7.61168C3.84531 7.61168 4.1248 7.4482 4.25914 7.16813C4.4457 6.7791 4.28164 6.31242 3.89258 6.12582L2.80148 5.60246C4.15762 3.39074 6.50398 1.84875 9.21879 1.59836V2.7734C9.21879 3.20488 9.56855 3.55465 10 3.55465C10.4315 3.55465 10.7813 3.20488 10.7813 2.7734V1.59777C11.7121 1.6825 12.6127 1.91953 13.4677 2.30547C13.8608 2.48301 14.3236 2.30805 14.5011 1.91488C14.6787 1.5216 14.5038 1.05891 14.1105 0.881367C12.815 0.296562 11.432 0 10 0C7.32891 0 4.8177 1.04016 2.92891 2.92891C1.0402 4.8177 0 7.32891 0 10C0 11.9738 0.585859 13.8935 1.69426 15.5514C1.84355 15.7746 2.09039 15.8985 2.34422 15.8985C2.45961 15.8985 2.57648 15.8729 2.68629 15.8193L4.28785 15.0381C4.67566 14.8489 4.83668 14.3812 4.6475 13.9934C4.45832 13.6056 3.99059 13.4446 3.60277 13.6338Z" fill="white"/>
<path d="M19.1186 5.88955C18.9411 5.49631 18.4785 5.32131 18.0851 5.49892C17.6919 5.67646 17.517 6.13916 17.6945 6.5324C18.1876 7.62451 18.4375 8.79119 18.4375 10C18.4375 11.4412 18.0662 12.8492 17.3584 14.1101L16.3515 13.6306C15.962 13.4451 15.4958 13.6105 15.3103 14.0001C15.1248 14.3896 15.2902 14.8558 15.6798 15.0413L17.3204 15.8226C17.4283 15.874 17.5427 15.8985 17.6559 15.8985C17.9098 15.8985 18.1566 15.7745 18.3057 15.5514C19.4142 13.8935 20 11.9738 20 10C20 8.56802 19.7035 7.18506 19.1186 5.88955Z" fill="white"/>
</svg>
