<svg width="30" height="30" viewBox="0 0 30 30" fill="none" xmlns="http://www.w3.org/2000/svg">
<path d="M27.5412 11.3115V10.8197C27.548 6.41676 24.4708 2.61031 20.1642 1.69418V0.491805C20.1642 0.220208 19.9439 0 19.6723 0H16.7215C16.4499 0 16.2297 0.220208 16.2297 0.491805V1.68986C13.6473 2.23762 11.4197 3.85855 10.1042 6.14756L10.9555 6.63937C11.6416 5.45572 12.6084 4.45914 13.7707 3.73776V5.90166H14.7543V3.21042C15.2291 2.99694 15.7233 2.82884 16.2297 2.70829V7.37707C16.2297 7.64867 16.4499 7.86888 16.7215 7.86888H19.6723C19.9439 7.86888 20.1642 7.64867 20.1642 7.37707V2.69748C20.6708 2.81899 21.1651 2.98853 21.6396 3.2037V5.90166H22.6232V3.726C23.1611 4.06243 23.6599 4.45842 24.1094 4.90628C25.6809 6.47247 26.5622 8.60106 26.5576 10.8197V11.3115H25.0822V9.34429C25.0822 9.07269 24.862 8.85249 24.5904 8.85249H21.6396C21.368 8.85249 21.1478 9.07269 21.1478 9.34429V10.8197H22.1314V9.8361H24.0986V11.3115H22.6232V12.2951H27.5412C28.0844 12.2951 28.5248 12.7355 28.5248 13.2787C28.5248 13.8219 28.0844 14.2623 27.5412 14.2623H20.656V15.2459H27.5412C28.6276 15.2459 29.5084 14.3651 29.5084 13.2787C29.5084 12.1923 28.6276 11.3115 27.5412 11.3115ZM19.1805 6.88527H17.2133V0.98361H19.1805V6.88527Z" fill="#FF7616"/>
<path d="M0.491805 21.1475H2.81515C2.9967 21.7769 3.24836 22.3837 3.56559 22.9569L1.92207 24.6004C1.72996 24.7926 1.72996 25.1038 1.92207 25.2959L4.70408 28.0779C4.8962 28.27 5.20742 28.27 5.39953 28.0779L7.04304 26.4344C7.61625 26.7516 8.22308 27.0033 8.85249 27.1848V29.5082C8.85249 29.7798 9.07269 30 9.34429 30H13.2787C13.5503 30 13.7705 29.7798 13.7705 29.5082V27.1848C14.3999 27.0033 15.0068 26.7516 15.58 26.4344L17.2235 28.0779C17.4156 28.27 17.7268 28.27 17.9189 28.0779L20.7009 25.2959C20.8931 25.1038 20.8931 24.7926 20.7009 24.6004L19.0574 22.9569C19.3747 22.3837 19.6263 21.7769 19.8079 21.1475H22.1312C22.4028 21.1475 22.623 20.9273 22.623 20.6557V16.7212C22.623 16.4496 22.4028 16.2294 22.1312 16.2294H19.8079C19.6263 15.6003 19.3744 14.9932 19.0574 14.42L20.7009 12.7765C20.8931 12.5844 20.8931 12.2731 20.7009 12.081L17.9189 9.29903C17.7268 9.10692 17.4156 9.10692 17.2235 9.29903L15.58 10.9425C15.0068 10.6253 14.3999 10.3736 13.7705 10.1921V7.86876C13.7705 7.59716 13.5503 7.37695 13.2787 7.37695H9.34429C9.07269 7.37695 8.85249 7.59716 8.85249 7.86876V10.1921C8.22308 10.3736 7.61625 10.6253 7.04304 10.9425L5.39953 9.29903C5.20742 9.10692 4.8962 9.10692 4.70408 9.29903L1.92207 12.081C1.72996 12.2731 1.72996 12.5844 1.92207 12.7765L3.56559 14.42C3.2486 14.9932 2.9967 15.6003 2.81515 16.2294H0.491805C0.220208 16.2294 0 16.4496 0 16.7212V20.6557C0 20.9273 0.220208 21.1475 0.491805 21.1475ZM0.98361 17.2131H3.19337C3.4203 17.2131 3.61794 17.0574 3.67125 16.8368C3.86264 16.0462 4.17602 15.2903 4.60034 14.5963C4.71873 14.4025 4.68896 14.1527 4.52854 13.9923L2.965 12.4288L5.05181 10.342L6.61535 11.9055C6.776 12.0661 7.02575 12.0959 7.21978 11.9773C7.9133 11.5525 8.66926 11.2391 9.4598 11.0482C9.68049 10.9949 9.8361 10.7973 9.8361 10.5703V8.36056H12.7869V10.5703C12.7869 10.7973 12.9425 10.9949 13.1632 11.0482C13.9538 11.2391 14.7097 11.5525 15.4032 11.9773C15.5973 12.0959 15.847 12.0661 16.0077 11.9055L17.5712 10.342L19.658 12.4288L18.0945 13.9923C17.9341 14.1527 17.9043 14.4025 18.0227 14.5963C18.447 15.2903 18.7604 16.0462 18.9518 16.8368C19.0051 17.0574 19.2027 17.2131 19.4297 17.2131H21.6394V20.1639H19.4297C19.2027 20.1639 19.0051 20.3195 18.9518 20.5402C18.7609 21.3307 18.4475 22.0867 18.0227 22.7802C17.904 22.9742 17.9338 23.224 18.0945 23.3846L19.658 24.9482L17.5712 27.035L16.0077 25.4714C15.847 25.3108 15.5973 25.281 15.4032 25.3996C14.7097 25.8244 13.9538 26.1378 13.1632 26.3287C12.9425 26.382 12.7869 26.5797 12.7869 26.8066V29.0164H9.8361V26.8066C9.8361 26.5797 9.68049 26.382 9.4598 26.3287C8.66926 26.1378 7.9133 25.8244 7.21978 25.3996C7.02575 25.281 6.776 25.3108 6.61535 25.4714L5.05181 27.035L2.965 24.9482L4.52854 23.3846C4.6892 23.224 4.71897 22.9742 4.60034 22.7802C4.17554 22.0867 3.86216 21.3307 3.67125 20.5402C3.61794 20.3195 3.4203 20.1639 3.19337 20.1639H0.98361V17.2131Z" fill="#FF7616"/>
<path d="M11.3115 24.5901C14.5709 24.5901 17.2131 21.9478 17.2131 18.6884C17.2131 15.429 14.5709 12.7867 11.3115 12.7867C8.05207 12.7867 5.40982 15.429 5.40982 18.6884C5.41342 21.9464 8.05351 24.5865 11.3115 24.5901ZM11.3115 13.7704C14.0277 13.7704 16.2295 15.9722 16.2295 18.6884C16.2295 21.4046 14.0277 23.6064 11.3115 23.6064C8.59527 23.6064 6.39343 21.4046 6.39343 18.6884C6.39631 15.9734 8.59647 13.7732 11.3115 13.7704Z" fill="#FF7616"/>
<path d="M11.3116 21.6394C12.9412 21.6394 14.2625 20.3182 14.2625 18.6886C14.2625 17.059 12.9412 15.7378 11.3116 15.7378C9.68205 15.7378 8.36081 17.059 8.36081 18.6886C8.36249 20.3177 9.68253 21.6378 11.3116 21.6394ZM11.3116 16.7214C12.398 16.7214 13.2789 17.6022 13.2789 18.6886C13.2789 19.775 12.398 20.6558 11.3116 20.6558C10.2252 20.6558 9.34442 19.775 9.34442 18.6886C9.34442 17.6022 10.2252 16.7214 11.3116 16.7214Z" fill="#FF7616"/>
</svg>
