<svg width="16" height="26" viewBox="0 0 16 26" fill="none" xmlns="http://www.w3.org/2000/svg">
<mask id="mask0_1_1256" style="mask-type:alpha" maskUnits="userSpaceOnUse" x="0" y="0" width="16" height="26">
<path d="M0 17.5434C0 13.351 7.5911 0 7.5911 0C7.5911 0 15.1822 13.351 15.1822 17.5434C15.1822 21.7359 11.7837 25.1346 7.5911 25.1346C3.39854 25.1346 0 21.7358 0 17.5434Z" fill="#F1904C"/>
</mask>
<g mask="url(#mask0_1_1256)">
<path d="M0.000229537 17.5434C0.000229537 13.3509 7.59134 0 7.59134 0C7.59134 0 14.3404 9.82595 14.3404 14.0184L1.51699 22.0617C-2.67558 22.0617 0.000229537 21.7357 0.000229537 17.5434Z" fill="#FF7616"/>
<path d="M-0.702454 24.5817L19.0726 12.2249L26.8142 24.6141L7.03916 36.9709L-0.702454 24.5817Z" fill="black"/>
</g>
</svg>
