<svg width="20" height="21" viewBox="0 0 20 21" fill="none" xmlns="http://www.w3.org/2000/svg">
<path d="M16.0821 11.7779C15.3607 10.0183 14.9999 8.16378 14.9999 6.21432C14.9999 4.98668 14.643 4.01207 13.9289 3.29026C13.2143 2.56849 12.2321 2.13309 10.9821 1.98435C11.0415 1.85051 11.0712 1.71287 11.0712 1.57148C11.0712 1.27384 10.9671 1.02065 10.7588 0.812491C10.5506 0.604099 10.2976 0.5 9.99993 0.5C9.70245 0.5 9.44942 0.604099 9.24102 0.812491C9.03267 1.02081 8.92857 1.27384 8.92857 1.57148C8.92857 1.71287 8.95828 1.85039 9.01789 1.98435C7.76789 2.13325 6.7857 2.56845 6.07143 3.29026C5.3572 4.01203 5.00011 4.98664 5.00011 6.21432C5.00011 8.16378 4.63934 10.0183 3.91753 11.7779C3.19576 13.5376 2.12811 15.0165 0.714355 16.2144C0.714355 16.6012 0.855747 16.9361 1.13849 17.2188C1.42119 17.5014 1.75597 17.643 2.143 17.643H7.14299C7.14299 18.4317 7.4219 19.1051 7.97996 19.663C8.53806 20.2209 9.21147 20.5 10.0001 20.5C10.7888 20.5 11.4622 20.2209 12.0201 19.663C12.578 19.1051 12.8571 18.4317 12.8571 17.643H17.8571C18.244 17.643 18.5791 17.5017 18.8615 17.2188C19.1443 16.9361 19.2857 16.6012 19.2857 16.2144C17.8722 15.0165 16.8044 13.5376 16.0821 11.7779ZM10.0001 19.607C9.45696 19.607 8.99362 19.4157 8.61049 19.0325C8.22736 18.6492 8.03574 18.1859 8.03574 17.6427C8.03574 17.5236 8.09531 17.4641 8.21431 17.4641C8.33338 17.4641 8.39295 17.5236 8.39295 17.6427C8.39295 18.0817 8.55099 18.4593 8.8672 18.7756C9.18348 19.092 9.56102 19.25 10 19.25C10.1191 19.25 10.1789 19.3098 10.1789 19.4286C10.179 19.5477 10.1192 19.607 10.0001 19.607ZM2.75685 16.2144C3.97714 14.8676 4.89409 13.3368 5.5079 11.6218C6.1217 9.9068 6.42876 8.10432 6.42876 6.21448C6.42876 4.30971 7.61915 3.35738 10.0001 3.35738C12.381 3.35738 13.5715 4.30971 13.5715 6.21448C13.5715 8.10432 13.8784 9.9068 14.4922 11.6218C15.1058 13.3369 16.0233 14.8676 17.2434 16.2144H2.75685Z" fill="black"/>
</svg>
