<svg width="27" height="30" viewBox="0 0 27 30" fill="none" xmlns="http://www.w3.org/2000/svg">
<path d="M8.02404 15.2814C7.91894 15.1763 7.76085 15.1448 7.62354 15.2017C7.48623 15.2586 7.3967 15.3926 7.3967 15.5412V22.0631C7.3967 22.2661 7.5612 22.4306 7.76419 22.4306H14.286C14.4347 22.4306 14.5686 22.341 14.6256 22.2037C14.6824 22.0664 14.6509 21.9083 14.5459 21.8032L8.02404 15.2814ZM8.13168 21.6956V16.4284L13.3988 21.6956H8.13168Z" fill="#FF7616"/>
<path d="M26.5702 2.26387L24.6594 0.353124C24.5159 0.209603 24.2832 0.20967 24.1397 0.353124L13.0969 11.396C13.0615 11.4313 13.0338 11.4735 13.0153 11.5199L11.8048 14.5592L6.93406 9.68837L7.80815 8.81434C7.95167 8.67082 7.95167 8.43817 7.80815 8.29465C7.66463 8.15112 7.43197 8.15112 7.28845 8.29465L6.41436 9.16867L4.94815 7.70245V0.36749C4.94815 0.164502 4.78364 0 4.58066 0H0.36749C0.164502 0 0 0.164502 0 0.36749V29.6325C0 29.8355 0.164502 30 0.36749 30H4.58066C4.78364 30 4.94815 29.8355 4.94815 29.6325V25.6136H21.8199L22.8462 26.6399C22.9179 26.7116 23.0119 26.7475 23.106 26.7475C23.2001 26.7475 23.2941 26.7116 23.3659 26.6399C23.5094 26.4964 23.5094 26.2637 23.3659 26.1202L12.3641 15.1184L15.4034 13.908C15.4498 13.8894 15.492 13.8617 15.5273 13.8264L26.5702 2.78357C26.639 2.71468 26.6778 2.6212 26.6778 2.52372C26.6778 2.42623 26.639 2.33276 26.5702 2.26387ZM4.2131 29.265H0.734979V28.6111H1.36619C1.56918 28.6111 1.73368 28.4466 1.73368 28.2436C1.73368 28.0406 1.56918 27.8761 1.36619 27.8761H0.734979V26.7191H1.36619C1.56918 26.7191 1.73368 26.5546 1.73368 26.3516C1.73368 26.1486 1.56918 25.9841 1.36619 25.9841H0.734979V24.8272H1.36619C1.56918 24.8272 1.73368 24.6627 1.73368 24.4597C1.73368 24.2567 1.56918 24.0922 1.36619 24.0922H0.734979V22.9352H1.36619C1.56918 22.9352 1.73368 22.7707 1.73368 22.5678C1.73368 22.3648 1.56918 22.2003 1.36619 22.2003H0.734979V21.0433H1.36619C1.56918 21.0433 1.73368 20.8788 1.73368 20.6758C1.73368 20.4729 1.56918 20.3084 1.36619 20.3084H0.734979V19.1514H1.36619C1.56918 19.1514 1.73368 18.9869 1.73368 18.7839C1.73368 18.5809 1.56918 18.4164 1.36619 18.4164H0.734979V17.2595H1.36619C1.56918 17.2595 1.73368 17.095 1.73368 16.892C1.73368 16.689 1.56918 16.5245 1.36619 16.5245H0.734979V15.3675H1.36619C1.56918 15.3675 1.73368 15.203 1.73368 15C1.73368 14.797 1.56918 14.6325 1.36619 14.6325H0.734979V13.4756H1.36619C1.56918 13.4756 1.73368 13.3111 1.73368 13.1081C1.73368 12.9051 1.56918 12.7406 1.36619 12.7406H0.734979V11.5836H1.36619C1.56918 11.5836 1.73368 11.4191 1.73368 11.2161C1.73368 11.0131 1.56918 10.8486 1.36619 10.8486H0.734979V9.69171H1.36619C1.56918 9.69171 1.73368 9.52721 1.73368 9.32422C1.73368 9.12123 1.56918 8.95673 1.36619 8.95673H0.734979V7.79974H1.36619C1.56918 7.79974 1.73368 7.63524 1.73368 7.43225C1.73368 7.22926 1.56918 7.06476 1.36619 7.06476H0.734979V5.90777H1.36619C1.56918 5.90777 1.73368 5.74327 1.73368 5.54028C1.73368 5.33729 1.56918 5.17279 1.36619 5.17279H0.734979V4.01586H1.36619C1.56918 4.01586 1.73368 3.85136 1.73368 3.64837C1.73368 3.44538 1.56918 3.28088 1.36619 3.28088H0.734979V2.12389H1.36619C1.56918 2.12389 1.73368 1.95939 1.73368 1.7564C1.73368 1.55341 1.56918 1.38891 1.36619 1.38891H0.734979V0.73498H4.21317V29.265H4.2131ZM4.94808 24.8786V8.74178L6.73648 10.5302L5.69088 11.5758C5.54735 11.7193 5.54735 11.952 5.69088 12.0955C5.76264 12.1673 5.85665 12.2031 5.95072 12.2031C6.0448 12.2031 6.13881 12.1673 6.21057 12.0955L7.25618 11.0499L8.07428 11.868L7.02867 12.9136C6.88515 13.0571 6.88515 13.2898 7.02867 13.4333C7.10043 13.5051 7.19444 13.5409 7.28852 13.5409C7.3826 13.5409 7.47661 13.5051 7.54837 13.4333L8.59398 12.3877L9.41207 13.2058L8.36647 14.2514C8.22295 14.3949 8.22295 14.6276 8.36647 14.7711C8.43823 14.8428 8.53224 14.8787 8.62632 14.8787C8.72039 14.8787 8.8144 14.8428 8.88616 14.7711L9.93177 13.7255L10.7499 14.5436L9.70426 15.5892C9.56074 15.7327 9.56074 15.9654 9.70426 16.1089C9.77602 16.1806 9.87003 16.2165 9.96411 16.2165C10.0582 16.2165 10.1522 16.1806 10.224 16.1089L11.2696 15.0633L12.0877 15.8814L11.0421 16.927C10.8985 17.0705 10.8985 17.3032 11.0421 17.4467C11.1138 17.5184 11.2078 17.5543 11.3019 17.5543C11.396 17.5543 11.49 17.5184 11.5618 17.4467L12.6074 16.4011L13.4255 17.2192L12.3799 18.2648C12.2363 18.4083 12.2363 18.641 12.3799 18.7845C12.4516 18.8562 12.5456 18.8921 12.6397 18.8921C12.7338 18.8921 12.8278 18.8562 12.8996 18.7845L13.9452 17.7389L14.7633 18.557L13.7176 19.6026C13.5741 19.7461 13.5741 19.9788 13.7176 20.1223C13.7894 20.194 13.8834 20.2299 13.9775 20.2299C14.0716 20.2299 14.1656 20.194 14.2373 20.1223L15.283 19.0767L16.1011 19.8948L15.0554 20.9404C14.9119 21.0839 14.9119 21.3165 15.0554 21.4601C15.1272 21.5318 15.2212 21.5677 15.3153 21.5677C15.4093 21.5677 15.5034 21.5318 15.5751 21.4601L16.6208 20.4145L17.4388 21.2326L16.3932 22.2782C16.2497 22.4217 16.2497 22.6543 16.3932 22.7979C16.465 22.8696 16.559 22.9055 16.6531 22.9055C16.7472 22.9055 16.8412 22.8696 16.9129 22.7979L17.9585 21.7523L18.7766 22.5704L17.731 23.616C17.5875 23.7595 17.5875 23.9921 17.731 24.1357C17.8028 24.2074 17.8968 24.2433 17.9909 24.2433C18.085 24.2433 18.179 24.2074 18.2507 24.1357L19.2963 23.0901L21.0847 24.8785H4.94808V24.8786ZM14.8318 12.6112L23.9695 3.47345L24.4052 3.90909L15.2675 13.0468L14.8318 12.6112ZM14.3121 12.0915L13.8765 11.6558L23.0142 2.51811L23.4498 2.95375L14.3121 12.0915ZM13.4916 12.3104L14.6129 13.4317L12.7495 14.1738L13.4916 12.3104ZM24.9249 3.38939L23.534 1.99841L24.3996 1.13274L25.7906 2.52372L24.9249 3.38939Z" fill="#FF7616"/>
<path d="M24.2637 27.018C24.1202 26.8745 23.8875 26.8745 23.744 27.018C23.6005 27.1616 23.6005 27.3942 23.744 27.5377L24.8779 28.6716C24.9496 28.7434 25.0436 28.7793 25.1377 28.7793C25.2317 28.7793 25.3258 28.7434 25.3976 28.6716C25.5411 28.5281 25.5411 28.2954 25.3976 28.1519L24.2637 27.018Z" fill="#FF7616"/>
<path d="M26.295 29.0493C26.1514 28.9059 25.9188 28.9059 25.7753 29.0495C25.6318 29.1931 25.6319 29.4258 25.7755 29.5692L25.7986 29.5923C25.8703 29.664 25.9643 29.6998 26.0584 29.6998C26.1524 29.6998 26.2465 29.6639 26.3183 29.5921C26.4618 29.4485 26.4617 29.2159 26.3181 29.0724L26.295 29.0493Z" fill="#FF7616"/>
<path d="M14.5408 1.92874C14.6348 1.92874 14.7289 1.89286 14.8007 1.82103L14.8593 1.76244C15.0027 1.61892 15.0027 1.38619 14.8592 1.24274C14.7157 1.09922 14.483 1.09928 14.3395 1.24281L14.2809 1.30147C14.1375 1.44499 14.1375 1.67765 14.281 1.82117C14.3528 1.89286 14.4468 1.92874 14.5408 1.92874Z" fill="#FF7616"/>
<path d="M12.5087 3.9616C12.6027 3.9616 12.6968 3.92572 12.7686 3.85396L13.9025 2.72009C14.046 2.57657 14.046 2.34391 13.9025 2.20039C13.759 2.05693 13.5263 2.05687 13.3828 2.20039L12.2489 3.33426C12.1054 3.47778 12.1054 3.71044 12.2489 3.85396C12.3206 3.92572 12.4147 3.9616 12.5087 3.9616Z" fill="#FF7616"/>
<path d="M10.4774 5.993C10.5714 5.993 10.6655 5.95712 10.7373 5.88536L11.8712 4.75148C12.0147 4.60796 12.0147 4.37531 11.8712 4.23179C11.7277 4.08827 11.495 4.08827 11.3515 4.23179L10.2175 5.36566C10.074 5.50918 10.074 5.74184 10.2175 5.88536C10.2893 5.95712 10.3833 5.993 10.4774 5.993Z" fill="#FF7616"/>
<path d="M8.44601 8.02434C8.54009 8.02434 8.6341 7.98846 8.70586 7.9167L9.83973 6.78283C9.98326 6.63931 9.98326 6.40666 9.83973 6.26313C9.69621 6.11961 9.46349 6.11968 9.32004 6.26313L8.18616 7.39707C8.04264 7.54059 8.04264 7.77325 8.18616 7.91677C8.25792 7.98853 8.352 8.02434 8.44601 8.02434Z" fill="#FF7616"/>
</svg>
