<svg width="20" height="20" viewBox="0 0 20 20" fill="none" xmlns="http://www.w3.org/2000/svg">
<g clip-path="url(#clip0_1_99)">
<path d="M7.81036 14.0585H10.4659V15.6206H7.81036V14.0585ZM4.88144 13.8634C4.34219 13.8634 3.90518 14.3004 3.90518 14.8396C3.90518 15.3787 4.34219 15.8159 4.88144 15.8159C5.42068 15.8159 5.8577 15.3787 5.8577 14.8396C5.8577 14.3004 5.42068 13.8634 4.88144 13.8634ZM15.6987 9.09897H7.81036V10.661H15.6987V9.09897ZM4.88144 8.90381C4.34219 8.90381 3.90518 9.34082 3.90518 9.88007C3.90518 10.4193 4.34219 10.8563 4.88144 10.8563C5.42068 10.8563 5.8577 10.4193 5.8577 9.88007C5.8577 9.34082 5.42068 8.90381 4.88144 8.90381ZM15.6987 4.41284H7.81036V5.97488H15.6987V4.41284ZM4.88144 4.21753C4.34219 4.21753 3.90518 4.65469 3.90518 5.19379C3.90518 5.73303 4.34219 6.1702 4.88144 6.1702C5.42068 6.1702 5.8577 5.73303 5.8577 5.19379C5.8577 4.65469 5.42068 4.21753 4.88144 4.21753ZM1.56204 17.6514V2.34314C1.56204 1.91238 1.91238 1.56204 2.34314 1.56204H17.6514C18.082 1.56204 18.4323 1.91238 18.4323 2.34314V11.1688H19.9944V2.34314C19.9944 1.05118 18.9433 0 17.6514 0H2.34314C1.05118 0 0 1.05118 0 2.34314V17.6514C0 18.9433 1.05118 19.9944 2.34314 19.9944H11.364V18.4323H2.34314C1.91238 18.4323 1.56204 18.082 1.56204 17.6514ZM18.8954 20L17.3399 18.4445C16.8137 18.759 16.1989 18.94 15.5426 18.94C13.6046 18.94 12.0279 17.3633 12.0279 15.4254C12.0279 13.4874 13.6046 11.9107 15.5426 11.9107C17.4805 11.9107 19.0572 13.4874 19.0572 15.4254C19.0572 16.1424 18.8411 16.8098 18.4711 17.3665L20 18.8954L18.8954 20ZM15.5426 17.3779C16.6193 17.3779 17.4951 16.5021 17.4951 15.4254C17.4951 14.3488 16.6193 13.4727 15.5426 13.4727C14.4659 13.4727 13.5899 14.3488 13.5899 15.4254C13.5899 16.5021 14.4659 17.3779 15.5426 17.3779Z" fill="#B7BACF"/>
</g>
<defs>
<clipPath id="clip0_1_99">
<rect width="20" height="20" fill="white"/>
</clipPath>
</defs>
</svg>
