<svg width="16" height="16" viewBox="0 0 16 16" fill="none" xmlns="http://www.w3.org/2000/svg">
<g id="Icons/24px/Search">
<g id="Icons/24px/Search_2">
<g id="zoom split">
<path id="Combined Shape" d="M14.0359 13.3641C14.2214 13.5496 14.2214 13.8504 14.0359 14.0359C13.8504 14.2214 13.5496 14.2214 13.3641 14.0359L11.0841 11.7559C10.8986 11.5704 10.8986 11.2696 11.0841 11.0841C11.2696 10.8986 11.5704 10.8986 11.7559 11.0841L14.0359 13.3641ZM6.86001 11.895C4.07926 11.895 1.82501 9.64077 1.82501 6.86001C1.82501 4.07926 4.07926 1.82501 6.86001 1.82501C9.64077 1.82501 11.895 4.07926 11.895 6.86001C11.895 9.64077 9.64077 11.895 6.86001 11.895ZM6.86001 10.945C9.1161 10.945 10.945 9.1161 10.945 6.86001C10.945 4.60393 9.1161 2.77501 6.86001 2.77501C4.60393 2.77501 2.77501 4.60393 2.77501 6.86001C2.77501 9.1161 4.60393 10.945 6.86001 10.945ZM4.51668 6.48001C4.51668 6.6549 4.3749 6.79668 4.20001 6.79668C4.02512 6.79668 3.88335 6.6549 3.88335 6.48001C3.88335 5.04591 5.04591 3.88335 6.48001 3.88335C6.6549 3.88335 6.79668 4.02512 6.79668 4.20001C6.79668 4.3749 6.6549 4.51668 6.48001 4.51668C5.39569 4.51668 4.51668 5.39569 4.51668 6.48001Z" fill="#303031" fill-opacity="0.75"/>
</g>
</g>
</g>
</svg>
