<svg width="30" height="30" viewBox="0 0 30 30" fill="none" xmlns="http://www.w3.org/2000/svg">
<path d="M28.1462 28.9888H27.3035V2.52809C27.3035 2.24877 27.0771 2.02248 26.7979 2.02248H17.3597C17.0804 2.02248 16.8541 2.24877 16.8541 2.52809V4.71908H15.8428V2.52809C15.8428 2.24877 15.6164 2.02248 15.3372 2.02248H13.1462V0.505605C13.1462 0.226289 12.9198 0 12.6406 0C12.3614 0 12.135 0.226289 12.135 0.505605V2.02248H9.94398C9.66472 2.02248 9.43837 2.24877 9.43837 2.52809V4.71908H7.9215C7.64224 4.71908 7.41589 4.94537 7.41589 5.22469V9.43816H3.20241C2.92315 9.43816 2.69681 9.66445 2.69681 9.94377V28.9887H1.85399C1.57474 28.9887 1.34839 29.215 1.34839 29.4943C1.34839 29.7737 1.57479 30 1.85399 30H28.1462C28.4254 30 28.6518 29.7737 28.6518 29.4944C28.6518 29.2151 28.4254 28.9888 28.1462 28.9888ZM10.4495 3.03369H14.8315V4.71908H10.4495V3.03369ZM8.76413 28.9888H8.42704V28.1461C8.42704 27.8668 8.20064 27.6405 7.92144 27.6405C7.64224 27.6405 7.41583 27.8668 7.41583 28.1461V28.9888H7.07874V27.3034H8.76413V28.9888ZM12.1349 16.0112V16.881V28.9888H9.77534V26.7978C9.77534 26.5185 9.54894 26.2922 9.26974 26.2922H6.57314C6.29388 26.2922 6.06753 26.5185 6.06753 26.7978V28.9888H3.70796V10.4494H12.1349V16.0112ZM12.6405 9.43822H8.42704V5.73035H16.854V15.5056H13.1462V13.8202H14.6631C14.9423 13.8202 15.1687 13.5939 15.1687 13.3146C15.1687 13.0353 14.9423 12.809 14.6631 12.809H13.1462V11.1236H14.6631C14.9423 11.1236 15.1687 10.8973 15.1687 10.618C15.1687 10.3387 14.9423 10.1124 14.6631 10.1124H13.1462V9.94389C13.1462 9.66451 12.9198 9.43822 12.6405 9.43822ZM21.5731 28.9888H13.1462V16.881V16.5169H21.5731V28.9888ZM26.2922 28.9888H22.5844V16.0112V15.337C22.5844 15.0577 22.3579 14.8314 22.0787 14.8314C21.7995 14.8314 21.5731 15.0577 21.5731 15.337V15.5055H20.5619V15.337C20.5619 15.0577 20.3355 14.8314 20.0563 14.8314C19.7771 14.8314 19.5507 15.0577 19.5507 15.337V15.5055H17.8653V5.22475V3.03369H26.2923V28.9888H26.2922Z" fill="#FF7616"/>
<path d="M15.3374 27.9774C15.6166 27.9774 15.843 27.751 15.843 27.4718V18.0337C15.843 17.7544 15.6166 17.5281 15.3374 17.5281C15.0582 17.5281 14.8318 17.7544 14.8318 18.0337V27.4719C14.8318 27.7511 15.0581 27.9774 15.3374 27.9774Z" fill="#FF7616"/>
<path d="M17.3598 27.9774C17.6391 27.9774 17.8654 27.751 17.8654 27.4718V18.0337C17.8654 17.7544 17.639 17.5281 17.3598 17.5281C17.0806 17.5281 16.8542 17.7544 16.8542 18.0337V27.4719C16.8541 27.7511 17.0805 27.9774 17.3598 27.9774Z" fill="#FF7616"/>
<path d="M19.5962 27.904C19.8754 27.904 20.1018 27.6776 20.1018 27.3984V17.9602C20.1018 17.6809 19.8754 17.4546 19.5962 17.4546C19.317 17.4546 19.0906 17.6809 19.0906 17.9602V27.3984C19.0906 27.6776 19.317 27.904 19.5962 27.904Z" fill="#FF7616"/>
<path d="M20.0561 6.40445C20.3354 6.40445 20.5617 6.17816 20.5617 5.89884V5.22472C20.5617 4.94541 20.3353 4.71912 20.0561 4.71912C19.7769 4.71912 19.5505 4.94541 19.5505 5.22472V5.8989C19.5505 6.17816 19.7769 6.40445 20.0561 6.40445Z" fill="#FF7616"/>
<path d="M22.0786 6.40445C22.3578 6.40445 22.5842 6.17816 22.5842 5.89884V5.22472C22.5842 4.94541 22.3578 4.71912 22.0786 4.71912C21.7994 4.71912 21.573 4.94541 21.573 5.22472V5.8989C21.573 6.17816 21.7993 6.40445 22.0786 6.40445Z" fill="#FF7616"/>
<path d="M24.1014 6.40445C24.3807 6.40445 24.607 6.17816 24.607 5.89884V5.22472C24.607 4.94541 24.3806 4.71912 24.1014 4.71912C23.8222 4.71912 23.5958 4.94541 23.5958 5.22472V5.8989C23.5958 6.17816 23.8222 6.40445 24.1014 6.40445Z" fill="#FF7616"/>
<path d="M20.0561 9.77511C20.3354 9.77511 20.5617 9.54882 20.5617 9.26951V8.59533C20.5617 8.31601 20.3353 8.08972 20.0561 8.08972C19.7769 8.08972 19.5505 8.31601 19.5505 8.59533V9.26951C19.5505 9.54882 19.7769 9.77511 20.0561 9.77511Z" fill="#FF7616"/>
<path d="M22.0786 9.77511C22.3578 9.77511 22.5842 9.54882 22.5842 9.26951V8.59533C22.5842 8.31601 22.3578 8.08972 22.0786 8.08972C21.7994 8.08972 21.573 8.31601 21.573 8.59533V9.26951C21.573 9.54882 21.7993 9.77511 22.0786 9.77511Z" fill="#FF7616"/>
<path d="M24.1014 9.77511C24.3807 9.77511 24.607 9.54882 24.607 9.26951V8.59533C24.607 8.31601 24.3806 8.08972 24.1014 8.08972C23.8222 8.08972 23.5958 8.31601 23.5958 8.59533V9.26951C23.5958 9.54882 23.8222 9.77511 24.1014 9.77511Z" fill="#FF7616"/>
<path d="M20.0561 13.1462C20.3354 13.1462 20.5617 12.9199 20.5617 12.6406V11.9664C20.5617 11.6871 20.3353 11.4608 20.0561 11.4608C19.7769 11.4608 19.5505 11.6871 19.5505 11.9664V12.6406C19.5505 12.9199 19.7769 13.1462 20.0561 13.1462Z" fill="#FF7616"/>
<path d="M22.0786 13.1462C22.3578 13.1462 22.5842 12.9199 22.5842 12.6406V11.9664C22.5842 11.6871 22.3578 11.4608 22.0786 11.4608C21.7994 11.4608 21.573 11.6871 21.573 11.9664V12.6406C21.573 12.9199 21.7993 13.1462 22.0786 13.1462Z" fill="#FF7616"/>
<path d="M24.1014 13.1462C24.3807 13.1462 24.607 12.9199 24.607 12.6406V11.9664C24.607 11.6871 24.3806 11.4608 24.1014 11.4608C23.8222 11.4608 23.5958 11.6871 23.5958 11.9664V12.6406C23.5958 12.9199 23.8222 13.1462 24.1014 13.1462Z" fill="#FF7616"/>
<path d="M5.89884 14.4942C6.1781 14.4942 6.40444 14.2679 6.40444 13.9886V13.3144C6.40444 13.0351 6.17804 12.8088 5.89884 12.8088C5.61964 12.8088 5.39323 13.0351 5.39323 13.3144V13.9886C5.39323 14.2679 5.61964 14.4942 5.89884 14.4942Z" fill="#FF7616"/>
<path d="M7.92125 14.4942C8.20051 14.4942 8.42686 14.2679 8.42686 13.9886V13.3144C8.42686 13.0351 8.20045 12.8088 7.92125 12.8088C7.64206 12.8088 7.41565 13.0351 7.41565 13.3144V13.9886C7.41565 14.2679 7.642 14.4942 7.92125 14.4942Z" fill="#FF7616"/>
<path d="M9.94413 14.4942C10.2234 14.4942 10.4497 14.2679 10.4497 13.9886V13.3144C10.4497 13.0351 10.2233 12.8088 9.94413 12.8088C9.66493 12.8088 9.43852 13.0351 9.43852 13.3144V13.9886C9.43852 14.2679 9.66487 14.4942 9.94413 14.4942Z" fill="#FF7616"/>
<path d="M5.89884 17.8653C6.1781 17.8653 6.40444 17.639 6.40444 17.3597V16.6855C6.40444 16.4062 6.17804 16.1799 5.89884 16.1799C5.61964 16.1799 5.39323 16.4062 5.39323 16.6855V17.3597C5.39323 17.639 5.61964 17.8653 5.89884 17.8653Z" fill="#FF7616"/>
<path d="M7.92125 17.8653C8.20051 17.8653 8.42686 17.639 8.42686 17.3597V16.6855C8.42686 16.4062 8.20045 16.1799 7.92125 16.1799C7.64206 16.1799 7.41565 16.4062 7.41565 16.6855V17.3597C7.41565 17.639 7.642 17.8653 7.92125 17.8653Z" fill="#FF7616"/>
<path d="M9.94413 17.8653C10.2234 17.8653 10.4497 17.639 10.4497 17.3597V16.6855C10.4497 16.4062 10.2233 16.1799 9.94413 16.1799C9.66493 16.1799 9.43852 16.4062 9.43852 16.6855V17.3597C9.43852 17.639 9.66487 17.8653 9.94413 17.8653Z" fill="#FF7616"/>
<path d="M5.89884 21.2359C6.1781 21.2359 6.40444 21.0096 6.40444 20.7303V20.0561C6.40444 19.7768 6.17804 19.5505 5.89884 19.5505C5.61964 19.5505 5.39323 19.7768 5.39323 20.0561V20.7303C5.39323 21.0096 5.61964 21.2359 5.89884 21.2359Z" fill="#FF7616"/>
<path d="M7.92125 21.2359C8.20051 21.2359 8.42686 21.0096 8.42686 20.7303V20.0561C8.42686 19.7768 8.20045 19.5505 7.92125 19.5505C7.64206 19.5505 7.41565 19.7768 7.41565 20.0561V20.7303C7.41565 21.0096 7.642 21.2359 7.92125 21.2359Z" fill="#FF7616"/>
<path d="M9.94413 21.2359C10.2234 21.2359 10.4497 21.0096 10.4497 20.7303V20.0561C10.4497 19.7768 10.2233 19.5505 9.94413 19.5505C9.66493 19.5505 9.43852 19.7768 9.43852 20.0561V20.7303C9.43852 21.0096 9.66487 21.2359 9.94413 21.2359Z" fill="#FF7616"/>
<path d="M5.89884 24.6065C6.1781 24.6065 6.40444 24.3802 6.40444 24.1009V23.4267C6.40444 23.1474 6.17804 22.9211 5.89884 22.9211C5.61964 22.9211 5.39323 23.1474 5.39323 23.4267V24.1009C5.39323 24.3802 5.61964 24.6065 5.89884 24.6065Z" fill="#FF7616"/>
<path d="M7.92125 24.6065C8.20051 24.6065 8.42686 24.3802 8.42686 24.1009V23.4267C8.42686 23.1474 8.20045 22.9211 7.92125 22.9211C7.64206 22.9211 7.41565 23.1474 7.41565 23.4267V24.1009C7.41565 24.3802 7.642 24.6065 7.92125 24.6065Z" fill="#FF7616"/>
<path d="M9.94413 24.6065C10.2234 24.6065 10.4497 24.3802 10.4497 24.1009V23.4267C10.4497 23.1474 10.2233 22.9211 9.94413 22.9211C9.66493 22.9211 9.43852 23.1474 9.43852 23.4267V24.1009C9.43852 24.3802 9.66487 24.6065 9.94413 24.6065Z" fill="#FF7616"/>
<path d="M24.1014 16.5168C24.3807 16.5168 24.607 16.2905 24.607 16.0112V15.337C24.607 15.0577 24.3806 14.8314 24.1014 14.8314C23.8222 14.8314 23.5958 15.0577 23.5958 15.337V16.0112C23.5958 16.2905 23.8222 16.5168 24.1014 16.5168Z" fill="#FF7616"/>
<path d="M24.1014 19.8875C24.3807 19.8875 24.607 19.6612 24.607 19.3819V18.7078C24.607 18.4284 24.3806 18.2021 24.1014 18.2021C23.8222 18.2021 23.5958 18.4284 23.5958 18.7078V19.3819C23.5958 19.6612 23.8222 19.8875 24.1014 19.8875Z" fill="#FF7616"/>
<path d="M24.1014 23.2585C24.3807 23.2585 24.607 23.0322 24.607 22.7529V22.0787C24.607 21.7994 24.3806 21.5731 24.1014 21.5731C23.8222 21.5731 23.5958 21.7994 23.5958 22.0787V22.7529C23.5958 23.0322 23.8222 23.2585 24.1014 23.2585Z" fill="#FF7616"/>
<path d="M24.1014 26.6292C24.3807 26.6292 24.607 26.4029 24.607 26.1236V25.4495C24.607 25.1701 24.3806 24.9438 24.1014 24.9438C23.8222 24.9438 23.5958 25.1701 23.5958 25.4495V26.1236C23.5958 26.4029 23.8222 26.6292 24.1014 26.6292Z" fill="#FF7616"/>
<path d="M15.1686 7.92162C15.1686 7.6423 14.9422 7.41602 14.663 7.41602H10.618C10.3388 7.41602 10.1124 7.6423 10.1124 7.92162C10.1124 8.20094 10.3388 8.42723 10.618 8.42723H14.663C14.9423 8.42723 15.1686 8.20094 15.1686 7.92162Z" fill="#FF7616"/>
</svg>
