<svg width="20" height="20" viewBox="0 0 20 20" fill="none" xmlns="http://www.w3.org/2000/svg">
<path d="M10 9.78131C12.2237 9.78131 14.0265 7.59171 14.0265 4.89069C14.0265 2.1896 13.4346 0 10 0C6.56545 0 5.97345 2.1896 5.97345 4.89069C5.97345 7.59171 7.77625 9.78131 10 9.78131Z" fill="#B7BACF"/>
<path d="M2.39478 17.2488C2.3934 17.2024 2.39409 17.0841 2.39478 17.2488V17.2488Z" fill="#B7BACF"/>
<path d="M17.6049 17.3774C17.6056 17.0646 17.607 17.3323 17.6049 17.3774V17.3774Z" fill="#B7BACF"/>
<path d="M17.5963 17.0513C17.5217 12.346 16.9072 11.0053 12.2047 10.1566C12.2047 10.1566 11.5428 11.0001 9.99991 11.0001C8.45706 11.0001 7.795 10.1566 7.795 10.1566C3.14386 10.996 2.49197 12.3169 2.40626 16.8984C2.39923 17.2725 2.39597 17.2922 2.39471 17.2488C2.395 17.3301 2.39534 17.4807 2.39534 17.7431C2.39534 17.7431 3.51489 20 9.99991 20C16.4848 20 17.6045 17.7431 17.6045 17.7431C17.6045 17.5745 17.6046 17.4572 17.6048 17.3775C17.6035 17.4043 17.601 17.3523 17.5963 17.0513Z" fill="#B7BACF"/>
</svg>
