<svg width="19" height="19" viewBox="0 0 19 19" fill="none" xmlns="http://www.w3.org/2000/svg">
<path d="M9.50002 0C4.25347 0 0.000183105 4.25341 0.000183105 9.49997C0.000183105 14.7464 4.25347 19.0001 9.50002 19.0001C14.7466 19.0001 19.0002 14.7464 19.0002 9.49997C19.0002 4.25328 14.7466 0 9.50002 0ZM9.52897 13.9819V13.9818H9.47095H5.41299C5.41299 11.0142 8.01933 11.0149 8.5977 10.2389L8.66388 9.88504C7.8513 9.47324 7.27768 8.48041 7.27768 7.31924C7.27768 5.78946 8.27279 4.54912 9.50002 4.54912C10.7273 4.54912 11.7224 5.78946 11.7224 7.31924C11.7224 8.47053 11.1589 9.45716 10.3572 9.87548L10.4326 10.2776C11.0671 11.0159 13.5867 11.0641 13.5867 13.9819H9.52897Z" fill="#0052B4"/>
</svg>
